<?xml version="1.0" standalone="no"?>
<!DOCTYPE svg PUBLIC "-//W3C//DTD SVG 20010904//EN"
 "http://www.w3.org/TR/2001/REC-SVG-20010904/DTD/svg10.dtd">
<svg version="1.0" xmlns="http://www.w3.org/2000/svg"
 width="1920.000000pt" height="1080.000000pt" viewBox="0 0 1920.000000 1080.000000"
 preserveAspectRatio="xMidYMid meet">

<g transform="translate(0.000000,1080.000000) scale(0.100000,-0.100000)"
fill="#000000" stroke="none">
<path d="M0 5400 l0 -5400 9600 0 9600 0 0 5400 0 5400 -1695 0 c-1123 0
-1695 -3 -1695 -10 0 -11 12 -13 46 -11 27 3 34 -21 34 -121 0 -42 4 -79 9
-82 5 -3 12 -45 16 -93 4 -48 12 -98 18 -112 9 -19 9 -25 -1 -29 -7 -2 -12
-23 -12 -54 0 -39 6 -59 25 -84 16 -21 25 -46 25 -69 0 -19 7 -46 15 -59 9
-13 24 -88 35 -172 28 -208 54 -312 92 -363 10 -13 18 -31 18 -40 0 -9 9 -24
20 -34 11 -9 20 -27 20 -41 0 -13 8 -34 18 -47 26 -37 42 -67 42 -83 0 -8 13
-19 30 -25 16 -5 31 -16 31 -23 5 -52 10 -82 19 -98 8 -16 5 -20 -25 -30 -19
-6 -35 -15 -35 -20 0 -7 -27 -15 -84 -24 -10 -1 -26 -11 -35 -22 -9 -11 -32
-24 -51 -30 -21 -6 -34 -16 -33 -25 3 -15 -68 -49 -103 -49 -21 0 -34 -23 -34
-60 0 -13 1 -13 10 0 6 10 10 11 10 3 0 -7 5 -13 11 -13 17 0 39 -27 39 -49 0
-12 -4 -21 -10 -21 -5 0 -10 5 -10 10 0 6 -9 10 -20 10 -11 0 -20 -4 -20 -9 0
-5 -11 -12 -25 -15 -24 -6 -36 -26 -15 -26 6 0 10 -9 10 -20 0 -13 7 -20 19
-20 11 0 21 -5 23 -11 2 -5 10 -11 18 -12 26 -4 40 -17 55 -53 8 -19 21 -37
30 -40 8 -3 15 -15 15 -25 0 -10 4 -19 8 -19 5 0 13 -21 19 -46 8 -35 7 -59
-4 -102 -11 -41 -12 -62 -4 -79 15 -34 14 -96 -1 -91 -7 3 -18 15 -24 27 -11
20 -12 19 -31 -26 l-21 -48 -11 29 c-9 22 -9 43 -1 78 13 63 13 61 -11 55 -27
-7 -49 1 -49 19 0 15 -1 16 -40 18 -50 4 -96 28 -109 57 -7 16 -21 29 -30 29
-36 0 -81 22 -81 39 0 12 -18 25 -52 40 -68 30 -69 30 -119 66 -30 22 -44 26
-47 17 -7 -22 -44 -30 -102 -21 -30 5 -74 9 -97 9 -26 -1 -43 4 -43 10 0 23
-30 40 -69 40 -23 0 -41 -4 -41 -10 0 -5 5 -10 10 -10 6 0 10 -9 10 -20 0 -15
-7 -20 -27 -21 -16 -1 -37 -2 -48 -3 -17 -1 -21 -9 -23 -50 -2 -34 -9 -55 -23
-67 -10 -9 -19 -26 -19 -37 0 -12 -20 -43 -45 -69 -26 -27 -45 -56 -45 -69 0
-15 -12 -30 -35 -44 -19 -12 -35 -26 -35 -31 0 -5 -9 -9 -20 -9 -24 0 -35 -37
-25 -83 14 -64 17 -168 5 -182 -7 -9 -10 -44 -8 -94 3 -71 5 -81 21 -81 11 0
21 -9 24 -20 3 -11 9 -20 14 -20 5 0 9 -9 9 -20 0 -11 6 -20 13 -20 15 0 52
-69 62 -117 4 -18 12 -36 19 -40 7 -5 17 -27 24 -49 14 -49 44 -90 83 -113 32
-19 79 -84 79 -107 0 -8 17 -22 38 -31 45 -18 39 -13 47 -46 5 -20 3 -27 -7
-27 -21 0 -60 -47 -45 -54 22 -8 -16 -26 -54 -24 -19 1 -44 -4 -55 -10 -16 -9
-10 -11 36 -12 56 0 80 -12 80 -38 0 -10 -4 -10 -16 3 -13 13 -31 15 -93 11
-88 -5 -139 -15 -147 -27 -3 -5 -14 -9 -26 -9 -14 0 -18 5 -14 15 3 9 -3 30
-14 48 -11 17 -20 47 -20 65 0 20 -6 35 -15 38 -8 4 -15 17 -15 30 0 14 -9 43
-20 65 -12 22 -18 44 -16 48 3 5 -3 20 -14 34 -11 14 -20 30 -20 36 0 6 -4 11
-10 11 -5 0 -10 9 -10 19 0 11 -9 30 -20 43 -59 70 -95 128 -121 197 -16 43
-52 116 -79 163 -27 47 -52 102 -55 122 -4 20 -11 39 -16 42 -5 3 -9 22 -9 42
0 20 -7 69 -15 107 -8 39 -17 103 -21 143 -4 39 -11 72 -15 72 -5 0 -9 14 -9
31 0 35 -25 153 -45 214 -8 22 -17 65 -20 95 -4 30 -13 68 -21 84 -8 16 -14
41 -14 56 0 14 -4 30 -9 36 -6 5 -17 34 -25 64 -15 56 -32 109 -47 145 -5 11
-20 58 -35 105 -14 47 -30 89 -35 94 -5 6 -9 16 -9 24 0 13 -58 152 -80 193
-5 10 -39 75 -76 145 -36 71 -81 147 -99 170 -19 22 -43 59 -55 82 -12 22 -40
56 -63 75 -23 19 -58 51 -79 70 -31 31 -43 36 -90 38 -29 1 -70 -1 -90 -5 -36
-8 -38 -7 -38 18 0 32 -21 43 -107 56 -37 5 -78 13 -90 16 -14 4 -23 2 -23 -5
0 -6 -5 -11 -11 -11 -6 0 -9 9 -6 20 4 17 0 20 -24 20 -16 0 -29 -2 -29 -5 0
-14 31 -64 41 -67 7 -2 9 -12 5 -26 -7 -22 -8 -22 -49 10 -23 17 -50 40 -60
50 -10 10 -25 18 -33 18 -8 0 -30 11 -47 24 -69 53 -211 91 -246 67 -12 -8 -5
-18 35 -55 l49 -45 -37 -1 c-34 0 -66 -19 -36 -21 32 -2 52 -9 67 -23 21 -22
-1 -46 -27 -30 -27 17 -120 37 -145 30 -20 -5 -59 12 -77 34 -3 3 -23 15 -45
27 -87 45 -161 86 -175 97 -67 55 -300 73 -300 23 0 -30 78 -77 128 -77 42 0
54 -17 37 -50 -17 -32 -69 -45 -99 -24 -13 9 -26 10 -43 3 -30 -11 -71 13 -79
47 -9 34 -41 54 -87 54 -27 0 -40 5 -44 18 -13 32 -47 51 -93 52 -25 0 -78 9
-119 20 -101 27 -165 27 -185 -1 -12 -18 -21 -20 -57 -15 -29 4 -46 2 -51 -7
-6 -9 -12 -7 -23 7 -18 24 -63 31 -160 23 -16 -1 -29 3 -28 8 1 6 -7 11 -17
12 -10 1 -40 10 -67 19 -36 13 -85 18 -200 20 -83 1 -156 5 -161 8 -5 3 -112
6 -238 7 -179 1 -246 -2 -306 -15 -92 -20 -144 -40 -151 -60 -3 -8 -20 -17
-37 -21 -28 -6 -57 -27 -162 -115 -35 -30 -37 -30 -47 -11 -6 11 -11 36 -11
55 0 61 -32 240 -45 256 -15 18 -39 165 -30 181 4 5 4 26 1 45 l-7 34 -509 0
-510 0 0 -64 c0 -44 -5 -67 -15 -76 -9 -7 -15 -29 -15 -51 l0 -39 -48 0 c-42
0 -51 -4 -70 -30 -12 -16 -22 -36 -22 -43 0 -8 -7 -20 -15 -27 -9 -7 -13 -20
-10 -27 9 -26 -14 -55 -40 -49 -51 13 -112 -49 -74 -76 11 -7 11 -11 1 -15 -6
-2 -12 -11 -12 -18 0 -9 -18 -17 -47 -21 -68 -11 -66 -11 -84 -2 -9 4 -31 3
-49 -2 -36 -10 -60 1 -60 27 0 24 -27 44 -62 46 -18 1 -38 9 -45 18 -7 9 -33
19 -60 21 -26 3 -55 8 -63 12 -10 4 -19 -2 -25 -16 -8 -18 -17 -23 -45 -21
-19 2 -119 4 -221 6 -103 3 -193 8 -200 13 -19 11 -82 5 -91 -9 -8 -13 -101
-12 -179 3 -69 13 -122 13 -136 -1 -9 -9 -27 -9 -72 1 -34 7 -61 16 -61 20 0
12 -120 21 -139 11 -9 -5 -23 -6 -30 -2 -11 7 -11 9 0 13 19 7 -70 20 -107 16
-22 -2 -30 -9 -32 -28 -8 -73 -52 -96 -52 -27 0 51 -20 359 -26 405 l-5 32
-335 0 -336 0 6 -122 c15 -286 36 -1861 36 -2740 1 -435 3 -527 14 -531 8 -3
46 -9 85 -13 39 -3 71 -10 71 -13 0 -20 70 -81 92 -81 14 0 35 -11 48 -25 22
-23 22 -27 10 -65 -9 -28 -10 -52 -4 -82 8 -38 14 -45 64 -70 62 -30 97 -66
106 -106 9 -37 52 -129 64 -137 6 -3 10 -14 10 -24 0 -10 9 -26 19 -35 15 -13
18 -26 14 -56 -5 -32 -2 -39 15 -44 13 -4 31 -30 47 -64 21 -46 24 -61 16 -80
-15 -32 -13 -63 4 -86 8 -11 15 -30 15 -42 0 -12 7 -27 15 -34 8 -7 15 -21 15
-31 0 -10 5 -21 11 -25 6 -3 8 -15 6 -26 -6 -21 37 -93 55 -93 8 0 10 179 9
589 -1 433 1 592 10 602 7 9 32 14 71 14 l59 0 21 48 c12 26 24 50 25 53 4 6
-77 39 -147 60 -53 16 -125 78 -135 117 -4 15 -9 326 -12 692 -2 366 -6 703
-7 750 -2 47 -4 266 -6 487 -3 442 -1 461 47 408 27 -28 41 -25 82 19 14 14
30 26 37 26 7 0 15 6 17 13 4 9 8 9 15 -2 7 -10 14 -10 30 -2 33 17 42 13 42
-18 0 -29 27 -50 48 -37 15 9 250 -32 258 -45 3 -5 25 -9 50 -9 37 0 44 -3 44
-20 0 -11 4 -20 9 -20 5 0 11 -10 15 -23 3 -12 15 -33 28 -47 15 -15 18 -25
10 -28 -16 -5 -15 -22 2 -22 7 0 16 -13 19 -29 3 -16 13 -35 21 -44 12 -12 16
-47 18 -168 1 -107 6 -160 15 -174 8 -13 13 -53 13 -118 0 -105 9 -137 40
-137 10 0 26 -7 34 -16 14 -14 13 -18 -9 -40 -14 -14 -23 -29 -20 -34 3 -4 -6
-11 -20 -14 -42 -11 -48 -37 -24 -107 18 -53 20 -68 10 -94 -14 -40 -6 -63 22
-67 17 -2 21 -9 19 -28 -6 -52 -13 -69 -32 -75 -17 -5 -20 -17 -22 -102 -3
-84 -6 -97 -23 -107 -38 -21 -43 -37 -19 -60 21 -21 34 -70 23 -87 -4 -7 -4
-18 2 -25 6 -7 4 -15 -5 -23 -12 -10 -13 -33 -9 -119 6 -118 -12 -323 -30
-334 -15 -9 -14 -111 1 -116 17 -5 15 -51 -3 -68 -9 -9 -15 -36 -16 -67 -2
-63 -2 -58 6 -80 6 -15 4 -16 -18 -8 -18 7 -28 6 -36 -2 -19 -24 5 -39 65 -39
32 0 66 -5 76 -11 12 -8 24 -8 42 1 19 8 80 9 233 2 114 -5 288 -10 385 -10
l178 0 17 -27 c39 -59 33 -330 -8 -379 -8 -10 -70 -13 -255 -13 -134 0 -248
-2 -254 -6 -5 -3 -10 -15 -10 -26 0 -11 -7 -30 -15 -43 -14 -21 -14 -25 0 -39
20 -21 19 -43 -5 -65 -19 -18 -19 -18 0 -35 11 -9 20 -28 20 -41 0 -41 22 -50
90 -36 69 15 97 9 140 -27 32 -26 33 -27 62 -10 37 21 131 23 151 3 9 -10 16
-51 21 -128 9 -150 14 -209 18 -213 2 -2 45 -6 96 -8 51 -2 95 -7 99 -11 13
-12 -20 -25 -49 -19 -15 3 -34 0 -41 -6 -9 -7 -34 -8 -73 -3 -32 4 -90 4 -129
-1 -38 -4 -79 -4 -90 0 -11 5 -83 6 -160 3 l-140 -5 -10 -55 c-5 -30 -13 -60
-17 -66 -5 -7 -1 -29 8 -50 11 -26 15 -60 12 -113 l-3 -76 115 -3 c63 -1 126
-3 140 -4 14 0 77 0 141 2 83 1 122 -2 137 -11 12 -8 22 -17 22 -21 0 -3 30
-10 68 -14 91 -9 112 -18 112 -48 0 -14 10 -30 24 -39 25 -17 29 -32 46 -170
8 -63 6 -89 -6 -135 -16 -56 -37 -183 -35 -212 1 -8 4 -36 7 -61 4 -31 1 -58
-11 -85 -9 -21 -21 -75 -26 -118 -10 -82 -46 -153 -89 -176 -10 -5 -22 -19
-25 -30 -3 -11 -13 -20 -22 -20 -15 0 -72 -36 -84 -52 -3 -5 -35 -11 -71 -15
-61 -5 -66 -4 -73 16 -3 12 -15 21 -25 21 -11 0 -27 12 -37 28 -9 15 -32 44
-49 65 -28 33 -33 50 -44 135 -7 53 -10 129 -6 167 3 39 4 97 3 130 -1 33 -2
86 -1 117 0 55 -1 58 -30 68 -54 19 -215 28 -421 23 -110 -2 -206 0 -213 5
-16 11 -19 241 -8 547 9 240 1 300 -38 300 -11 0 -21 6 -23 13 -3 8 3 11 18
10 16 -2 27 5 36 22 12 24 12 75 -1 345 -2 28 0 59 4 70 4 11 4 30 -1 43 -5
13 -9 152 -9 309 -1 222 -4 283 -13 274 -12 -12 -15 -81 -16 -378 0 -72 -4
-134 -9 -137 -5 -3 -8 112 -8 259 1 243 0 265 -16 265 -16 0 -17 -33 -18 -437
0 -241 -4 -464 -9 -496 -5 -34 -4 -79 2 -109 7 -35 7 -60 0 -78 -6 -16 -8 -69
-5 -124 4 -82 2 -99 -12 -115 -17 -18 -17 -21 1 -47 16 -26 18 -54 19 -304 0
-151 -4 -283 -9 -294 -8 -17 -19 -18 -175 -12 -196 7 -202 10 -202 91 0 56 -1
55 73 79 29 9 14 31 -23 34 -37 4 -89 46 -70 57 6 4 18 1 26 -6 20 -16 28 -5
14 21 -15 29 -47 39 -86 27 -47 -14 -66 -4 -62 35 2 25 9 34 28 38 14 3 26 14
28 23 4 21 -17 22 -32 2 -16 -23 -72 -9 -95 24 -10 14 -31 55 -46 91 -15 36
-40 92 -55 125 -16 33 -40 87 -55 120 -15 33 -44 96 -65 140 -21 44 -41 87
-44 95 -4 8 -15 29 -26 45 -11 17 -23 38 -26 48 -4 9 -10 17 -14 17 -8 0 -20
-148 -20 -247 0 -37 -6 -76 -15 -92 -12 -24 -12 -31 -1 -40 17 -14 30 -297 15
-340 -7 -20 -7 -36 0 -48 6 -13 6 -45 0 -93 -7 -60 -6 -75 6 -84 21 -16 29
-68 13 -89 -12 -16 -17 -16 -72 -2 -42 11 -68 13 -90 6 -17 -5 -61 -12 -98
-16 -59 -6 -70 -4 -97 16 -29 21 -32 21 -49 6 -38 -35 -42 -9 -42 274 0 204 3
268 13 271 6 3 70 4 140 2 129 -4 171 4 161 29 -5 15 -84 15 -207 2 -58 -6
-71 -5 -88 11 -18 16 -20 29 -18 124 1 58 -2 123 -8 145 -5 22 -8 63 -7 90 2
28 5 82 7 121 3 39 9 79 15 90 14 26 8 120 -12 211 -9 43 -14 97 -11 135 6 76
-9 112 -47 116 -22 3 -26 8 -26 30 1 15 -7 42 -16 61 -10 18 -16 44 -13 58 7
38 -22 59 -75 54 -9 -1 -19 3 -23 9 -3 5 -39 10 -79 10 -43 0 -77 5 -84 12
-18 18 -15 -7 4 -37 19 -29 77 -60 98 -52 16 6 36 -11 36 -30 0 -8 -12 -13
-30 -13 -16 0 -30 -4 -30 -10 0 -5 -12 -20 -26 -33 l-26 -24 31 -11 c17 -6 37
-9 44 -7 17 6 43 -33 50 -77 4 -30 2 -37 -14 -41 -20 -5 -23 -3 -58 43 -24 32
-35 21 -33 -33 1 -24 -6 -59 -17 -82 -19 -40 -18 -66 2 -46 8 8 20 3 43 -14
18 -14 46 -25 63 -25 l30 0 -4 -77 c-1 -45 -8 -79 -14 -81 -7 -2 -11 10 -11
30 0 48 -10 78 -26 78 -10 0 -14 -13 -14 -45 0 -38 -3 -45 -19 -45 -11 0 -22
-4 -25 -9 -9 -14 4 -41 20 -41 14 0 19 -14 14 -35 -10 -38 6 -105 26 -105 15
0 17 7 14 56 -2 39 18 54 38 28 11 -15 13 -41 7 -129 -3 -60 -7 -200 -9 -310
-2 -112 -9 -225 -15 -255 -36 -156 -131 -340 -177 -340 -7 0 -14 -3 -16 -7 -5
-13 -66 -53 -81 -53 -7 0 -18 -5 -25 -12 -32 -32 -135 -55 -168 -38 -19 11
-31 11 -62 1 -22 -8 -59 -11 -83 -8 -190 21 -247 30 -264 39 -11 6 -33 14 -50
18 -19 3 -38 18 -50 37 -14 22 -25 30 -38 27 -21 -7 -90 63 -121 121 -16 30
-18 42 -9 65 7 20 7 32 0 39 -7 7 -5 22 8 50 11 24 16 53 12 73 -2 18 2 50 11
71 8 22 11 42 6 46 -14 12 -88 31 -122 31 -38 0 -42 11 -42 116 0 83 0 84 25
84 30 0 34 -7 39 -80 2 -30 5 -57 5 -59 1 -3 6 0 11 5 7 7 7 19 1 35 -7 19 -4
29 12 46 17 19 18 25 6 39 -8 10 -13 40 -12 85 1 49 -2 69 -10 66 -7 -2 -12
-21 -13 -43 -2 -68 -3 -74 -22 -74 -36 0 -42 40 -41 288 2 306 -7 438 -32 474
-25 34 -24 38 6 38 23 0 25 -4 25 -42 0 -32 3 -39 10 -28 6 8 9 37 8 65 -2 40
1 51 15 53 23 5 22 48 -1 96 l-18 37 -12 -26 c-15 -32 -32 -24 -32 16 0 24 4
29 25 29 20 0 25 5 25 25 0 21 -3 24 -16 17 -27 -15 -62 -2 -70 27 -3 14 -6
94 -5 176 3 162 10 187 57 206 14 5 28 18 31 29 3 11 9 20 13 20 4 0 13 14 20
30 12 29 27 36 73 32 11 -1 17 5 17 18 0 19 7 20 105 20 86 0 108 -3 124 -17
11 -10 26 -23 33 -30 25 -23 38 -42 38 -58 0 -8 3 -15 8 -15 4 0 15 -19 25
-42 14 -31 17 -54 12 -90 -6 -39 -4 -48 8 -48 8 0 17 10 20 22 9 33 35 6 29
-31 -2 -16 1 -32 7 -35 23 -15 10 -27 -26 -26 -21 1 -47 1 -58 0 -53 -5 41
-17 140 -19 78 -1 115 -6 132 -16 28 -19 233 -21 251 -3 6 6 14 9 17 6 3 -3
-1 -13 -10 -21 -9 -10 -11 -18 -5 -22 16 -10 30 4 30 31 0 29 20 38 116 56 43
9 66 18 69 29 16 50 27 904 14 1024 -6 50 -12 234 -14 410 -4 349 -23 934 -31
947 -3 5 -9 111 -13 237 -6 197 -9 232 -24 249 -9 10 -17 26 -17 35 0 13 -6
16 -25 12 -14 -3 -37 -7 -51 -10 -16 -4 -36 1 -51 11 -19 12 -37 14 -69 9 -24
-3 -44 -10 -44 -14 0 -5 -13 -11 -30 -14 -46 -10 -51 -50 -12 -90 50 -52 65
-114 59 -242 -3 -67 -11 -122 -20 -140 -8 -16 -23 -48 -33 -70 -31 -68 -122
-181 -170 -211 -26 -16 -50 -39 -55 -51 -7 -18 -16 -23 -46 -23 -21 0 -51 -7
-67 -15 -15 -8 -38 -15 -51 -15 -49 0 -83 -13 -93 -35 -8 -17 -16 -21 -36 -18
-27 6 -37 37 -13 46 9 4 9 6 -1 6 -7 1 -10 6 -7 11 3 6 -2 10 -11 10 -10 0
-39 18 -65 40 -26 22 -57 40 -67 40 -15 0 -22 9 -27 31 -4 17 -12 32 -19 35
-6 2 -13 18 -14 35 -3 43 -50 89 -80 78 -12 -5 -22 -5 -22 0 0 5 9 11 20 14
18 5 19 7 5 34 -8 15 -15 38 -15 51 0 12 -5 31 -12 42 -10 15 -9 22 5 38 9 10
17 28 17 40 0 12 8 23 20 27 11 3 20 13 20 21 0 8 7 17 15 20 10 4 15 20 15
45 0 27 4 39 14 39 13 0 53 30 78 57 97 107 99 125 18 139 -56 9 -69 15 -72
31 -2 14 -16 17 -68 19 -36 0 -94 11 -130 23 -70 23 -101 21 -158 -11 -26 -14
-37 -16 -48 -7 -11 9 -15 8 -20 -5 -3 -9 -15 -16 -26 -16 -48 0 -128 -66 -128
-105 0 -14 -4 -25 -10 -25 -5 0 -10 -14 -10 -31 0 -20 -8 -39 -21 -50 -19 -16
-21 -26 -16 -73 3 -30 12 -70 21 -88 26 -58 33 -101 21 -137 -7 -19 -15 -29
-19 -23 -9 14 -31 9 -55 -12 -16 -15 -30 -17 -83 -12 -35 4 -148 11 -252 16
-106 5 -194 14 -199 19 -6 6 -19 11 -29 11 -10 0 -18 7 -18 15 0 8 5 15 10 15
6 0 10 5 10 11 0 14 -47 59 -61 59 -5 0 -9 15 -9 33 -1 33 -27 104 -29 77 -1
-13 -3 -13 -11 1 -5 9 -6 28 0 45 4 16 9 22 11 14 5 -35 20 116 23 245 3 88 8
141 15 143 7 2 11 40 11 103 l0 99 -1525 0 -1525 0 0 -5400z m8700 4986 l65
-12 3 -87 c2 -66 6 -89 17 -94 19 -7 19 -30 0 -66 -8 -15 -17 -43 -21 -62 -3
-20 -12 -35 -20 -35 -7 0 -18 -9 -24 -21 -13 -23 -14 -22 18 -38 19 -10 22
-18 17 -40 -4 -19 -1 -32 10 -41 11 -9 15 -31 15 -81 0 -37 5 -71 10 -74 16
-10 12 -45 -5 -45 -9 0 -15 -9 -15 -24 0 -33 30 -149 41 -161 11 -11 11 -93
-1 -120 -5 -11 -9 -16 -9 -12 -1 5 -6 5 -11 2 -7 -4 -2 -21 11 -45 19 -33 20
-43 10 -71 -6 -17 -11 -50 -11 -73 -1 -31 -8 -50 -30 -76 -34 -39 -36 -51 -16
-83 15 -23 6 -67 -13 -67 -17 0 -39 -56 -29 -74 6 -11 6 -35 -2 -67 -14 -56
-9 -79 17 -79 23 0 63 -39 63 -62 0 -10 10 -20 25 -24 21 -5 25 -12 25 -40 0
-27 -4 -34 -19 -34 -16 0 -21 -10 -27 -47 -5 -27 -7 -51 -6 -55 1 -5 -1 -8 -6
-8 -4 0 -13 -13 -20 -29 -11 -25 -11 -34 2 -60 9 -16 16 -35 16 -41 0 -18 -71
-12 -89 8 -9 10 -24 21 -33 25 -10 3 -18 13 -18 22 0 14 -11 19 -26 13 -21
-10 -29 54 -32 255 -3 187 -1 217 12 217 8 0 17 8 21 18 7 23 -79 122 -106
122 -25 0 -32 -16 -19 -40 9 -16 8 -22 -5 -26 -8 -3 -15 -12 -15 -19 0 -7 -14
-28 -31 -46 -41 -44 -51 -64 -43 -93 5 -22 1 -28 -32 -43 -54 -25 -64 -37 -64
-73 0 -34 19 -60 44 -60 9 0 16 -4 16 -10 0 -5 12 -10 28 -10 21 0 24 -2 12
-10 -13 -9 -13 -10 0 -10 8 -1 -2 -10 -22 -21 -21 -11 -38 -24 -38 -29 0 -6
-9 -10 -20 -10 -11 0 -20 -7 -20 -15 0 -10 -10 -15 -30 -15 -16 0 -30 5 -30
10 0 6 -13 10 -29 10 -17 0 -33 5 -36 10 -4 6 -10 8 -14 5 -13 -7 0 189 13
197 7 5 3 13 -11 23 -19 13 -23 26 -23 66 0 27 -4 49 -10 49 -5 0 -10 9 -10
20 0 11 -7 21 -15 21 -8 1 -21 2 -27 3 -19 2 -22 36 -5 36 9 0 18 -6 20 -12 3
-7 6 -3 6 10 1 12 6 22 11 22 13 0 13 27 -1 32 -6 2 -10 38 -11 86 0 45 -4 85
-9 88 -5 3 -9 18 -9 35 0 16 -4 29 -10 29 -19 0 -11 48 9 55 32 10 32 33 2 82
-22 34 -27 52 -21 72 3 14 3 43 -2 64 -4 21 -6 48 -2 61 4 17 0 28 -14 38 -19
13 -47 87 -37 97 3 2 5 -2 5 -10 1 -8 7 -3 15 11 17 29 20 123 5 151 -12 21
-3 89 11 89 20 0 60 46 69 81 13 47 61 89 92 82 13 -4 25 -9 28 -13 3 -3 26
-14 51 -23 40 -15 49 -24 63 -61 23 -60 46 -84 86 -88 32 -4 36 -1 45 26 9 28
14 31 52 31 23 1 45 3 48 7 3 3 8 28 12 55 4 39 0 64 -17 109 -35 91 -37 143
-6 210 23 50 28 56 48 49 13 -4 52 -13 88 -19z m2836 -87 c7 -11 -27 -11 -45
0 -9 6 -5 9 13 9 15 0 29 -4 32 -9z m-1111 -220 c11 -17 -1 -21 -15 -4 -8 9
-8 15 -2 15 6 0 14 -5 17 -11z m261 -195 c-6 -16 -8 -16 -16 -4 -6 8 -10 24
-10 35 0 18 1 18 16 3 10 -10 14 -23 10 -34z m44 -93 c0 -15 7 -36 15 -47 8
-10 15 -26 15 -35 0 -8 11 -37 24 -63 29 -58 45 -162 23 -153 -7 3 -20 2 -27
-3 -21 -13 -67 50 -86 119 -14 50 -16 71 -7 102 6 22 8 55 4 72 -4 18 -5 43
-3 57 l4 25 19 -24 c10 -13 19 -35 19 -50z m-6020 -265 c0 -2 -7 -7 -16 -10
-8 -3 -12 -2 -9 4 6 10 25 14 25 6z m-246 -21 c-25 -19 -45 -19 -38 0 4 8 18
15 32 15 25 0 25 -1 6 -15z m210 -37 c-9 -14 -23 2 -17 18 4 12 8 13 14 3 4
-7 5 -17 3 -21z m6265 -317 c-1 -26 -1 -26 -14 4 -19 42 -19 66 0 41 8 -11 15
-31 14 -45z m5451 -102 c0 -5 -6 -9 -14 -9 -15 0 -26 21 -26 48 1 14 5 12 20
-7 11 -13 20 -27 20 -32z m-121 -18 c9 -15 7 -20 -9 -24 -16 -4 -20 0 -20 19
0 29 15 31 29 5z m61 -20 c0 -5 -9 -7 -20 -4 -11 3 -20 7 -20 9 0 2 9 4 20 4
11 0 20 -4 20 -9z m-4445 -41 c-3 -5 -10 -10 -16 -10 -5 0 -9 5 -9 10 0 6 7
10 16 10 8 0 12 -4 9 -10z m-4529 -88 c-13 -12 -17 8 -9 44 l8 39 3 -39 c2
-21 1 -41 -2 -44z m3654 -44 c0 -5 -4 -8 -10 -8 -5 0 -10 10 -10 23 0 18 2 19
10 7 5 -8 10 -18 10 -22z m56 -325 c-11 -11 -19 6 -11 24 8 17 8 17 12 0 3
-10 2 -21 -1 -24z m32 -112 c2 -40 0 -52 -10 -49 -8 3 -14 25 -16 57 -2 40 0
52 10 49 8 -3 14 -25 16 -57z m-7502 -26 c3 -19 3 -42 0 -52 -8 -19 9 -33 42
-33 17 0 22 -6 22 -25 0 -14 5 -25 11 -25 7 0 10 -18 9 -47 -3 -63 -2 -69 13
-85 8 -7 17 -26 21 -41 6 -24 3 -30 -14 -34 -17 -5 -20 -13 -20 -58 0 -35 5
-59 15 -69 10 -9 17 -40 20 -79 5 -75 13 -113 31 -147 8 -14 18 -70 23 -125 6
-55 15 -134 22 -175 6 -41 11 -92 10 -113 -1 -20 5 -49 12 -65 10 -19 16 -91
21 -252 3 -125 11 -229 16 -234 6 -6 10 -19 10 -31 0 -12 5 -26 12 -33 8 -8 4
-14 -18 -23 -41 -17 -829 -18 -1024 -1 -223 19 -834 42 -1114 41 l-49 0 16 25
c10 14 17 45 17 69 0 36 4 46 23 54 32 15 75 5 82 -18 12 -36 35 -14 35 32 0
13 10 24 30 30 20 7 30 18 30 31 0 11 7 26 15 34 8 9 15 12 15 8 0 -5 5 -3 12
4 7 7 27 12 45 12 18 0 33 4 33 9 0 5 8 12 19 16 10 3 26 23 36 45 10 22 21
40 26 40 4 0 5 9 2 20 -4 13 0 20 10 20 17 0 27 20 27 54 0 12 9 28 20 36 12
8 20 26 20 42 0 21 5 28 20 28 11 0 20 5 20 10 0 6 9 10 20 10 16 0 20 7 20
30 0 20 5 30 15 30 25 0 65 46 65 75 0 18 5 25 20 25 12 0 20 7 20 16 0 21 22
42 53 49 14 4 34 18 44 32 10 14 24 31 31 38 6 8 12 26 12 42 0 69 31 123 70
123 24 0 70 42 70 65 0 8 9 15 20 15 11 0 20 3 20 8 0 4 14 13 31 21 20 9 35
26 46 52 8 21 20 39 27 39 6 0 18 5 26 10 13 9 13 11 0 20 -12 8 -11 10 8 10
12 0 22 5 22 10 0 6 9 10 20 10 11 0 20 5 20 10 0 6 6 10 14 10 10 0 17 15 21
44 6 37 10 43 26 39 14 -4 19 0 19 16 0 14 6 21 20 21 11 0 20 5 20 10 0 6 22
10 49 10 55 0 56 1 66 83 5 40 12 57 22 57 19 0 63 45 63 65 0 15 50 23 50 8
0 -5 4 -14 9 -22 8 -12 15 -9 38 15 27 29 32 30 123 33 52 1 97 4 99 7 2 2 15
4 27 4 18 0 24 -7 30 -35z m7528 -111 c3 -9 6 -32 6 -52 0 -48 -20 -29 -27 27
-6 41 8 58 21 25z m9 -154 c-7 -28 -13 -25 -13 6 0 14 4 23 9 20 5 -3 7 -15 4
-26z m28 -166 c4 -38 4 -73 1 -78 -10 -17 -23 26 -28 90 -4 51 -2 65 8 62 8
-3 15 -31 19 -74z m8 -151 c1 -7 -3 -13 -9 -13 -5 0 -10 15 -9 33 0 27 2 29 9
12 5 -11 9 -26 9 -32z m-6431 -129 c19 -13 21 -19 11 -30 -13 -16 -30 -15 -31
1 0 6 -4 18 -9 28 -12 21 0 22 29 1z m6447 -24 c0 -35 -21 -53 -31 -26 -9 23
5 68 19 63 7 -2 12 -19 12 -37z m14 -135 c-1 -42 0 -78 3 -81 11 -10 43 -7
108 10 64 16 65 16 94 -5 20 -15 31 -18 34 -11 2 7 9 12 15 12 7 0 24 6 39 14
23 12 34 12 74 0 26 -8 79 -14 118 -14 107 0 187 -35 200 -86 7 -25 20 -31 31
-14 12 20 34 9 51 -25 9 -20 29 -45 45 -56 30 -21 62 -100 44 -106 -6 -2 -17
-8 -25 -13 -13 -9 -13 -11 0 -20 8 -5 27 -10 42 -10 32 0 73 -58 63 -89 -8
-25 -44 -16 -55 14 -11 29 -22 36 -39 25 -10 -6 -12 -20 -7 -53 6 -39 3 -52
-18 -86 -15 -22 -26 -45 -26 -51 0 -5 18 -10 40 -10 27 0 43 -5 46 -15 4 -8
18 -15 34 -15 40 0 51 -18 37 -63 -14 -45 -22 -46 -36 -7 -16 48 -35 38 -27
-16 5 -40 3 -47 -14 -51 -23 -6 -28 -51 -6 -59 9 -3 14 -23 14 -61 0 -61 9
-77 36 -67 15 6 17 14 12 46 -6 34 -4 39 11 36 25 -5 29 -40 23 -168 -4 -63
-2 -127 3 -142 6 -18 5 -40 -3 -62 -6 -19 -8 -50 -5 -68 10 -54 -13 -282 -34
-345 -47 -138 -101 -218 -181 -273 -32 -22 -64 -40 -71 -40 -7 0 -20 -6 -28
-13 -21 -18 -101 -47 -129 -47 -13 0 -34 7 -47 16 -21 14 -28 14 -41 3 -24
-20 -95 -21 -186 -4 -44 8 -97 15 -117 15 -21 0 -46 7 -57 15 -10 8 -32 15
-47 15 -20 0 -33 8 -45 30 -13 24 -24 30 -50 30 -28 0 -35 5 -43 29 -6 16 -21
37 -35 46 -13 8 -24 21 -24 27 0 6 -8 20 -17 30 -14 16 -15 23 -4 53 16 45 7
58 -34 51 -38 -7 -45 3 -45 65 0 53 25 52 46 -1 29 -72 54 -48 54 50 0 40 5
62 16 70 8 8 14 25 12 39 -2 22 -8 26 -30 23 -14 -1 -29 2 -33 8 -3 5 -24 10
-45 10 -21 0 -42 5 -46 11 -8 14 -9 177 -1 185 3 3 11 3 17 -1 8 -5 11 -30 8
-69 -3 -58 -2 -61 21 -64 21 -3 23 -1 17 21 -8 32 9 77 29 77 8 0 15 7 15 15
0 8 -9 15 -20 15 -17 0 -19 8 -22 73 -2 56 -6 72 -18 72 -10 0 -16 -12 -18
-35 -1 -19 -5 -46 -8 -60 -5 -24 -6 -24 -17 -5 -17 28 -17 683 -1 696 7 5 15
30 19 55 8 58 37 140 64 184 11 19 26 46 33 60 7 14 16 27 20 30 4 3 29 25 55
48 26 23 59 50 73 61 22 17 23 22 13 40 -7 11 -13 46 -13 76 0 49 2 55 21 55
19 0 20 -5 18 -75z m-6379 -1 c0 -2 -9 -4 -21 -4 -11 0 -18 4 -14 10 5 8 35 3
35 -6z m8980 -143 c8 1 198 3 422 5 456 5 418 11 432 -70 11 -60 -4 -279 -21
-302 -13 -18 -29 -19 -253 -20 -131 -1 -246 -4 -255 -7 -8 -4 -15 -17 -15 -29
0 -13 -7 -36 -15 -51 -13 -26 -13 -30 1 -44 24 -25 13 -56 -23 -65 -38 -10
-44 -28 -10 -28 31 0 47 -18 47 -51 0 -15 6 -31 12 -36 7 -4 59 -7 116 -8 97
0 104 -1 121 -24 l19 -24 36 21 c26 15 54 22 91 22 81 0 85 -10 85 -197 0
-188 -3 -193 -108 -193 -75 0 -92 9 -92 52 0 15 -4 28 -9 28 -11 0 -21 -25
-21 -56 l0 -24 -125 0 -125 0 0 -59 c0 -41 -5 -65 -16 -75 -14 -15 -14 -17 0
-32 12 -12 16 -38 16 -115 l0 -100 118 0 c64 0 180 1 258 2 106 1 143 -2 151
-13 7 -8 12 -90 14 -213 l4 -200 -65 -7 c-36 -4 -255 -7 -488 -5 -399 2 -424
3 -437 20 -19 26 -12 1042 7 1064 9 11 9 19 0 34 -17 26 -15 95 3 113 19 19
19 26 -2 41 -9 7 -13 17 -9 23 9 15 43 16 51 2 9 -15 25 -2 25 20 0 16 -5 18
-28 14 -49 -10 -55 10 -59 187 -5 172 1 198 38 178 14 -7 19 -6 19 4 0 25 28
41 45 27 12 -10 15 -7 20 17 11 46 14 53 24 53 6 0 13 -11 17 -25 11 -43 24
-27 24 30 0 30 -4 55 -10 55 -5 0 -13 0 -17 0 -5 0 -8 -4 -8 -10 0 -5 -4 -10
-10 -9 -11 1 -11 3 1 33 5 14 3 17 -12 14 -14 -2 -20 -13 -22 -43 -4 -52 -36
-87 -76 -83 -39 4 -45 25 -10 38 l27 11 -21 15 c-16 11 -22 25 -22 54 0 45 9
51 75 45 28 -3 57 -4 65 -4z m-4313 -63 c5 -13 20 -50 33 -83 12 -33 33 -84
47 -112 14 -29 26 -72 28 -97 2 -28 10 -51 23 -64 22 -22 20 -60 -5 -69 -9 -3
-2 -11 19 -22 24 -12 38 -29 52 -66 10 -27 32 -80 47 -118 16 -37 29 -78 29
-91 0 -13 7 -29 15 -36 8 -6 17 -22 21 -33 4 -12 16 -35 27 -51 l20 -29 24 29
c12 16 23 38 23 50 0 11 7 29 15 40 8 10 15 27 15 37 0 10 5 28 12 40 7 12 22
51 34 86 13 35 33 74 44 86 18 19 20 27 10 44 -9 18 -7 27 10 50 11 16 20 33
20 39 0 5 7 15 15 22 8 7 15 25 15 41 0 32 41 133 59 143 6 4 11 22 11 40 0
52 35 122 69 135 40 17 384 9 406 -9 29 -24 11 -90 -25 -90 -13 0 -20 -7 -20
-20 0 -26 -42 -36 -91 -23 -22 6 -44 6 -53 1 -21 -12 -61 0 -82 23 -30 34 -44
24 -46 -33 -4 -86 0 -130 13 -142 8 -8 9 -3 4 21 -7 34 -10 32 68 48 19 4 50
-21 60 -46 5 -12 7 -12 15 0 9 12 13 13 26 1 14 -11 23 -10 56 5 66 30 79 15
55 -62 -6 -17 -3 -23 9 -23 9 0 16 -6 17 -12 4 -43 -4 -1514 -7 -1520 -3 -5
-52 -8 -108 -8 l-103 0 -7 40 c-5 30 -11 40 -25 40 -25 0 -43 -24 -39 -52 3
-21 -1 -23 -50 -26 l-54 -3 6 188 c7 229 7 225 6 347 -1 93 0 100 24 125 32
33 33 43 4 39 -25 -3 -25 -1 -12 124 3 34 1 64 -6 77 -13 26 -5 57 17 65 21 8
25 3 32 -41 4 -21 11 -37 16 -36 14 3 19 72 6 87 -16 19 4 39 33 34 20 -4 26
-1 26 12 0 22 -28 34 -46 19 -18 -15 -31 -4 -39 30 -9 42 -36 64 -67 52 -13
-5 -35 -8 -49 -6 -13 1 -16 0 -6 -2 23 -6 22 -19 -13 -87 -17 -32 -30 -72 -30
-88 0 -60 -79 -180 -135 -204 -16 -7 -23 -13 -14 -14 9 0 23 -7 30 -16 11 -13
10 -17 -4 -26 -14 -7 -15 -13 -7 -29 9 -15 6 -26 -10 -49 -12 -17 -30 -30 -41
-30 -16 0 -19 -7 -19 -48 0 -36 -5 -54 -20 -67 -11 -10 -22 -26 -26 -37 -5
-16 -14 -19 -67 -16 l-62 3 -3 33 c-2 18 -10 36 -17 38 -8 3 -21 29 -29 58 -9
29 -25 61 -36 71 -11 10 -20 30 -20 44 0 14 -13 53 -29 86 -64 131 -119 251
-126 273 -8 28 -26 24 -42 -9 -16 -30 -17 -190 -2 -279 14 -87 2 -111 -54
-107 -23 1 -42 -3 -44 -10 -6 -16 33 -26 55 -14 14 7 24 7 36 -2 14 -10 17
-46 23 -258 l6 -245 -28 -22 c-22 -17 -25 -25 -16 -36 9 -10 7 -16 -5 -27 -14
-11 -21 -11 -46 4 -20 12 -35 14 -47 8 -10 -6 -44 -6 -86 -1 -39 5 -93 9 -122
10 -28 0 -58 3 -67 6 -19 7 -22 73 -3 76 6 0 18 2 26 2 8 1 19 10 25 21 17 31
28 35 72 29 23 -3 50 -2 60 4 11 5 36 7 56 5 31 -4 38 -10 43 -34 4 -16 11
-29 16 -29 15 0 10 50 -6 56 -8 4 -15 19 -15 35 0 24 -6 30 -39 40 -28 8 -42
20 -52 43 -12 26 -20 32 -52 34 -21 2 -44 -1 -50 -6 -19 -16 -74 -24 -81 -13
-7 10 20 60 38 73 6 4 3 9 -7 12 -9 4 -24 8 -32 11 -12 3 -15 22 -16 82 0 43
-4 128 -10 188 -19 228 -21 302 -7 327 10 18 14 126 18 473 l5 450 99 3 c102
3 122 -3 128 -40 2 -14 19 -25 58 -39 52 -18 56 -18 68 -2 18 25 15 46 -10 63
-23 14 -23 15 12 20 42 7 62 -1 77 -32z m3639 17 c27 -8 65 -15 85 -15 19 0
44 -7 55 -15 10 -8 24 -15 31 -15 34 -1 163 -116 163 -146 0 -4 6 -15 14 -23
25 -30 39 -126 43 -297 4 -165 3 -174 -21 -227 -31 -70 -98 -144 -153 -169
-56 -25 -61 -37 -24 -51 17 -6 31 -17 31 -24 0 -7 8 -13 18 -13 22 0 53 -32
76 -77 19 -39 22 -123 4 -123 -7 0 -4 -7 7 -16 17 -13 21 -30 26 -137 3 -74 2
-125 -4 -128 -5 -4 -7 -19 -3 -33 9 -36 -10 -68 -37 -64 -18 2 -21 9 -19 31 5
36 -13 57 -49 57 -29 0 -38 -13 -19 -25 19 -12 10 -25 -18 -25 -16 0 -39 -9
-52 -20 -28 -24 -30 -24 -45 -3 -12 16 -15 15 -39 -7 -29 -28 -33 -61 -11 -80
9 -7 14 -19 11 -27 -9 -22 24 -27 56 -8 36 21 100 16 128 -10 25 -23 50 -12
50 20 0 21 4 26 22 23 18 -2 27 -19 50 -83 15 -44 32 -88 38 -97 15 -25 12
-45 -6 -52 -9 -3 -91 -6 -183 -6 l-167 0 -22 30 c-12 16 -22 35 -22 42 0 7 -8
27 -17 43 -13 24 -17 69 -21 240 -2 116 -8 215 -12 220 -5 6 -11 28 -15 50 -9
50 -31 93 -59 117 -18 17 -33 18 -111 13 -58 -3 -94 -10 -104 -19 -11 -12 -15
-79 -19 -363 -3 -210 -8 -353 -14 -360 -14 -17 -393 -19 -403 -2 -6 9 -18 177
-16 224 0 11 1 202 1 426 l0 405 35 -4 c23 -3 35 0 35 8 0 16 -39 50 -56 50
-10 0 -13 72 -13 356 1 340 2 357 20 361 10 3 21 13 24 23 5 15 21 20 91 25
102 9 132 -1 140 -45 7 -31 23 -41 25 -15 1 8 3 20 4 25 1 6 3 19 4 30 1 19 8
20 209 20 156 0 221 -4 258 -15z m-11529 -482 c-1 -87 -3 -16 -3 157 0 173 2
244 3 158 2 -87 2 -229 0 -315z m6650 365 c-3 -8 -6 -5 -6 6 -1 11 2 17 5 13
3 -3 4 -12 1 -19z m73 -28 c1 10 5 7 12 -7 7 -14 19 -21 31 -20 35 3 60 -62
54 -142 -9 -119 -13 -129 -62 -139 -54 -12 -105 -4 -113 17 -3 9 -14 22 -24
29 -19 14 -25 66 -9 76 5 3 12 22 15 41 4 21 13 35 21 35 19 0 19 27 0 63 -17
33 -10 57 15 57 11 0 22 5 26 11 4 8 12 3 20 -12 9 -15 14 -19 14 -9z m-4102
-43 c2 -10 -3 -17 -12 -17 -18 0 -29 16 -21 31 9 14 29 6 33 -14z m6251 4 c18
-11 5 -31 -20 -31 -18 0 -26 20 -12 33 8 9 15 9 32 -2z m71 -12 c16 -28 5 -51
-22 -47 -21 3 -24 12 -19 58 2 18 30 11 41 -11z m-2093 -121 c-3 -8 -6 -5 -6
6 -1 11 2 17 5 13 3 -3 4 -12 1 -19z m165 -49 c2 -19 -2 -25 -21 -27 -19 -3
-22 0 -17 13 3 9 6 28 6 42 0 21 2 22 14 10 8 -7 16 -25 18 -38z m-6781 -34
c0 -5 -7 -12 -16 -13 -23 -5 -47 6 -40 19 8 13 56 8 56 -6z m2334 -14 c5 -17
3 -32 -15 -76 -33 -88 -51 -181 -39 -212 7 -18 4 -25 -13 -34 -19 -10 -25 -8
-45 15 -27 32 -28 43 -7 144 17 85 30 116 45 107 5 -4 9 3 9 14 0 24 29 61 47
61 6 0 14 -8 18 -19z m5816 -36 c0 -5 -9 -11 -21 -13 -20 -3 -27 8 -13 22 10
9 34 3 34 -9z m5084 -44 c3 -5 1 -12 -5 -16 -5 -3 -10 1 -10 9 0 18 6 21 15 7z
m-13425 -121 c0 -5 -7 -10 -15 -10 -8 0 -15 5 -15 10 0 6 7 10 15 10 8 0 15
-4 15 -10z m10517 -37 c-3 -3 -11 -2 -17 2 -9 6 -9 10 1 16 14 8 27 -7 16 -18z
m3996 -394 c9 -6 17 -14 17 -19 0 -13 -27 -13 -35 0 -3 6 -52 10 -110 10 -97
0 -125 6 -107 25 9 9 212 -5 235 -16z m-13058 -279 c152 -8 225 -22 225 -40 0
-5 -9 -12 -21 -15 -11 -4 -18 -12 -16 -19 6 -16 -9 -41 -24 -41 -12 0 -21 -21
-33 -76 -3 -15 -15 -29 -26 -32 -16 -4 -20 -13 -20 -50 0 -26 6 -49 14 -56 9
-8 11 -22 7 -43 -4 -17 -3 -59 1 -92 11 -86 10 -115 -7 -139 -8 -12 -15 -37
-15 -57 -1 -19 -7 -46 -15 -60 -8 -14 -14 -35 -15 -47 0 -13 -4 -23 -8 -23 -4
0 -16 -19 -26 -43 -13 -33 -25 -45 -49 -53 -27 -7 -32 -13 -29 -35 2 -22 -3
-28 -24 -32 -18 -3 -31 1 -42 14 -9 11 -22 19 -29 19 -22 0 -92 54 -93 72 0 9
-11 25 -23 35 -20 15 -27 37 -42 133 -11 63 -19 149 -18 190 2 146 12 285 22
313 6 16 11 41 11 57 0 16 5 32 10 35 15 10 12 25 -6 25 -11 0 -14 6 -8 23 3
12 8 24 10 26 2 2 87 17 119 19 6 1 82 -3 170 -8z m900 -104 c-6 -82 -2 -112
28 -186 5 -14 11 -34 13 -45 2 -11 6 -30 10 -42 4 -16 2 -23 -7 -23 -20 0 -32
11 -51 45 -9 17 -28 37 -42 45 -14 8 -39 36 -55 61 -26 42 -28 52 -24 111 l6
65 -34 12 c-58 20 -16 35 115 39 l48 2 -7 -84z m301 -51 c6 -36 -2 -75 -16
-75 -12 0 -43 87 -37 104 10 26 46 7 53 -29z m-2254 -12 c3 -25 7 -28 36 -25
17 1 32 -2 32 -6 0 -5 11 -14 24 -20 33 -15 38 -65 41 -412 4 -330 2 -350 -30
-350 -16 0 -25 8 -31 28 -4 15 -6 32 -5 39 1 7 -11 15 -26 19 -36 8 -69 46
-77 87 -4 21 -16 38 -35 48 -43 25 -63 97 -65 233 -2 116 2 152 30 279 14 62
21 77 36 77 10 0 18 -4 18 -10 0 -5 5 -10 10 -10 6 0 10 8 10 18 0 40 27 43
32 5z m7138 -161 c0 -14 -11 -21 -26 -15 -8 3 -11 9 -8 14 7 11 34 12 34 1z
m-5060 -134 c0 -13 -62 24 -68 40 -2 7 11 4 32 -9 20 -11 36 -25 36 -31z m48
-40 c19 -19 14 -30 -10 -26 -13 2 -24 11 -26 21 -4 20 18 23 36 5z m37 -56 c0
-18 -20 -15 -23 4 -3 10 1 15 10 12 7 -3 13 -10 13 -16z m15 -79 c0 -5 -7 -16
-15 -26 -11 -15 -20 -17 -47 -11 l-33 7 38 10 c20 5 37 13 37 18 0 5 5 9 10 9
6 0 10 -3 10 -7z m11636 -485 c-3 -7 -9 -21 -12 -31 -4 -9 -17 -20 -30 -23
-25 -6 -32 -20 -13 -26 18 -6 13 -57 -8 -86 -11 -15 -25 -44 -32 -64 -7 -21
-21 -40 -31 -43 -27 -9 -87 -85 -92 -115 -2 -18 -11 -26 -30 -30 -15 -3 -39
-15 -53 -28 -28 -24 -42 -24 -102 -1 -25 10 -26 12 -9 18 17 7 12 12 -31 35
l-51 28 -7 71 c-4 40 -12 75 -18 79 -9 6 -9 10 0 16 9 5 9 19 2 50 -11 52 -6
62 29 62 15 0 62 9 106 20 43 11 88 20 99 20 11 0 43 7 71 15 147 42 222 54
212 33z m-1182 -507 c10 -11 32 -21 50 -23 l31 -3 8 -78 c7 -68 6 -83 -12
-120 -11 -23 -23 -60 -27 -82 -4 -22 -15 -46 -26 -53 -14 -10 -18 -26 -18 -78
0 -56 4 -68 25 -90 19 -18 22 -29 16 -46 -8 -23 -4 -31 37 -72 20 -19 21 -26
12 -50 -5 -15 -19 -30 -30 -33 -13 -3 -22 -17 -26 -42 -4 -20 -13 -50 -20 -67
-8 -19 -11 -51 -7 -85 4 -41 2 -59 -9 -70 -8 -8 -18 -33 -21 -57 -9 -56 -52
-151 -72 -158 -8 -3 -15 -12 -15 -19 0 -14 -22 -25 -51 -25 -13 0 -19 7 -19
24 0 14 -4 28 -10 31 -5 3 -10 33 -10 65 0 39 -6 70 -19 92 -10 18 -25 54 -32
80 -10 37 -16 45 -26 36 -19 -16 -25 -5 -14 26 9 23 7 28 -19 48 -17 12 -30
31 -30 43 0 11 -15 36 -34 55 -18 19 -36 45 -40 58 -13 39 14 119 61 190 59
88 93 152 123 232 13 36 40 89 59 119 20 30 41 62 46 70 25 40 79 101 90 101
7 0 20 -9 29 -19z m-10102 -44 l26 -22 2 -235 c2 -129 0 -264 -3 -300 -4 -42
-2 -69 6 -78 9 -12 5 -20 -21 -42 -36 -30 -37 -35 -19 -70 7 -15 11 -50 9 -89
l-4 -64 -51 6 c-28 4 -54 11 -57 18 -15 23 -32 219 -28 311 3 85 8 103 37 159
33 63 33 66 28 157 -3 51 -10 99 -17 107 -19 22 -30 78 -24 113 10 53 69 68
116 29z m10033 -1337 c10 -16 -13 -39 -34 -33 -13 3 -17 11 -14 24 6 20 37 26
48 9z m139 -95 c18 -8 43 -11 54 -8 17 4 22 1 22 -16 0 -13 11 -26 29 -36 26
-13 30 -22 37 -71 9 -73 -2 -173 -21 -194 -8 -9 -15 -26 -15 -38 0 -11 -4 -24
-10 -27 -5 -3 -10 -14 -10 -24 0 -9 -18 -30 -39 -47 -22 -16 -45 -39 -52 -51
-7 -13 -16 -23 -21 -23 -4 0 -8 -10 -8 -23 0 -13 -6 -31 -13 -41 -13 -18 -14
-18 -21 -1 -6 17 -7 17 -20 0 -12 -16 -14 -16 -44 -1 -35 18 -38 27 -47 141
-3 44 -10 84 -14 90 -11 13 -21 162 -14 198 6 33 23 36 23 5 1 -21 1 -22 11
-4 7 11 9 38 5 67 -6 47 1 76 27 104 16 17 101 16 141 0z m-6964 -1152 c0 -13
5 -23 12 -23 25 0 48 -34 48 -71 0 -51 -37 -95 -88 -102 -102 -15 -103 -16
-100 -58 2 -33 -3 -43 -30 -65 -18 -15 -32 -35 -32 -46 0 -10 -7 -33 -16 -50
-22 -43 -30 -24 -37 84 -4 75 -2 89 14 107 24 26 28 45 9 46 -11 0 -15 13 -16
50 -1 88 10 110 64 130 26 10 68 20 95 22 35 4 47 9 47 21 1 28 30 -17 30 -45z"/>
<path d="M8494 9919 c-10 -18 11 -31 40 -23 29 7 34 19 10 28 -24 9 -42 7 -50
-5z"/>
<path d="M8226 8752 c-2 -4 -1 -14 5 -22 7 -12 9 -10 9 8 0 23 -5 28 -14 14z"/>
<path d="M11757 7330 c-19 -16 -39 -30 -44 -30 -6 0 -20 -8 -31 -17 -12 -10
-33 -26 -47 -36 -30 -22 -32 -37 -5 -37 11 0 20 4 20 10 0 5 11 12 25 16 14 3
25 10 25 14 0 4 14 13 30 19 17 5 30 15 30 20 0 6 7 11 15 11 14 0 35 29 35
49 0 19 -18 12 -53 -19z"/>
<path d="M11901 7213 c0 -21 3 -32 6 -25 2 6 11 12 20 12 21 0 13 44 -9 48
-15 3 -18 -4 -17 -35z"/>
<path d="M11912 7128 c3 -7 13 -15 22 -16 12 -3 17 1 14 10 -3 7 -13 15 -22
16 -12 3 -17 -1 -14 -10z"/>
<path d="M10995 7117 c-4 -10 -5 -21 -1 -24 10 -10 18 4 13 24 -4 17 -4 17
-12 0z"/>
<path d="M11504 7061 c-18 -5 -47 -18 -66 -29 -28 -17 -45 -21 -89 -17 -30 3
-47 3 -39 -1 85 -32 92 -37 85 -63 -4 -14 -11 -80 -15 -146 -8 -114 -10 -121
-36 -141 l-27 -22 27 -33 28 -33 -3 -190 c-3 -164 -6 -196 -21 -223 -11 -18
-28 -35 -39 -38 -29 -9 -13 -25 26 -25 39 0 45 -11 45 -81 0 -27 4 -57 8 -67
5 -9 18 -36 30 -59 12 -23 22 -51 22 -61 0 -11 7 -22 14 -25 22 -9 113 8 132
24 13 11 55 14 178 14 200 0 233 19 40 23 -121 2 -132 4 -140 23 -15 32 18
294 39 317 22 24 21 38 -3 62 -18 18 -20 33 -20 128 0 60 3 156 6 215 l7 105
33 18 c44 24 43 38 -1 30 -31 -6 -36 -4 -44 18 -6 13 -13 53 -17 88 -4 37 -13
67 -22 74 -8 6 -13 18 -9 27 3 8 -3 23 -13 32 -10 9 -20 27 -22 39 -3 24 -39
30 -94 17z"/>
<path d="M10960 7036 c0 -9 5 -16 10 -16 6 0 10 4 10 9 0 6 -4 13 -10 16 -5 3
-10 -1 -10 -9z"/>
<path d="M11930 7040 c-13 -9 -13 -11 0 -20 25 -17 50 -12 50 10 0 22 -25 27
-50 10z"/>
<path d="M11705 6959 c-4 -6 -5 -13 -2 -16 7 -7 27 6 27 18 0 12 -17 12 -25
-2z"/>
<path d="M11794 6926 c-3 -8 -14 -18 -25 -21 -31 -10 -22 -25 16 -25 30 0 35
3 35 24 0 29 -18 44 -26 22z"/>
<path d="M11913 6829 c-10 -38 -9 -40 11 -37 25 4 34 49 13 66 -10 9 -15 3
-24 -29z"/>
<path d="M11050 6755 c0 -8 4 -15 9 -15 5 0 14 7 21 15 10 13 9 15 -9 15 -12
0 -21 -6 -21 -15z"/>
<path d="M11942 6705 c-69 -36 -92 -53 -92 -66 0 -11 37 -12 42 -1 4 10 84 52
100 52 12 0 48 34 48 45 0 12 -40 0 -98 -30z"/>
<path d="M12020 6575 c0 -9 -9 -29 -21 -44 -17 -23 -19 -32 -10 -50 13 -24 22
-26 39 -9 14 14 16 118 2 118 -5 0 -10 -7 -10 -15z"/>
<path d="M11730 6570 c0 -5 5 -10 10 -10 6 0 10 5 10 10 0 6 -4 10 -10 10 -5
0 -10 -4 -10 -10z"/>
<path d="M11864 6505 c-9 -21 25 -57 50 -53 22 3 34 34 19 48 -4 4 -20 10 -36
14 -20 5 -29 2 -33 -9z"/>
<path d="M11027 6440 c-3 -14 -8 -49 -9 -78 -3 -61 12 -70 37 -21 15 27 15 33
2 47 -9 10 -17 31 -19 47 -4 30 -4 30 -11 5z"/>
<path d="M11114 6416 c-15 -38 14 -67 52 -52 12 5 11 11 -7 36 -25 33 -37 37
-45 16z"/>
<path d="M11130 6210 c-19 -11 -43 -19 -52 -20 -10 0 -18 -4 -18 -10 0 -5 -11
-12 -25 -16 -14 -4 -24 -11 -22 -17 6 -18 24 -19 40 -2 9 8 23 15 33 15 22 0
104 48 104 60 0 15 -21 11 -60 -10z"/>
<path d="M11978 6122 c-10 -2 -18 -8 -18 -13 0 -13 27 -11 35 2 9 13 4 16 -17
11z"/>
<path d="M11110 6065 c-11 -21 -11 -29 0 -51 13 -23 15 -24 21 -7 11 25 11 71
1 77 -5 3 -15 -6 -22 -19z"/>
<path d="M11227 5972 c-24 -26 -21 -34 9 -30 15 2 33 13 42 26 14 21 13 22
-10 22 -14 0 -32 -8 -41 -18z"/>
<path d="M11310 5920 c0 -5 9 -10 19 -10 11 0 23 5 26 10 4 6 -5 10 -19 10
-14 0 -26 -4 -26 -10z"/>
<path d="M11067 5854 c-10 -11 5 -34 22 -34 18 0 41 18 41 32 0 9 -54 11 -63
2z"/>
<path d="M12057 5843 c-2 -5 -7 -20 -11 -35 -5 -21 -3 -28 8 -28 13 0 26 28
26 58 0 13 -16 17 -23 5z"/>
<path d="M11108 5764 c-3 -3 -1 -18 5 -34 8 -20 8 -39 0 -63 -12 -39 -3 -63
21 -54 14 6 16 43 7 150 -1 8 -25 10 -33 1z"/>
<path d="M11405 5650 c-3 -5 -13 -10 -21 -10 -14 0 -121 -75 -136 -95 -11 -14
-3 -30 13 -29 15 1 149 99 161 118 4 6 8 14 8 19 0 10 -18 9 -25 -3z"/>
<path d="M14370 7179 c0 -15 5 -20 22 -17 34 5 37 38 4 38 -20 0 -26 -5 -26
-21z"/>
<path d="M13817 7033 c-13 -12 -7 -54 8 -59 8 -4 15 -16 15 -28 0 -32 11 -66
21 -66 15 0 10 59 -8 111 -18 48 -23 55 -36 42z"/>
<path d="M13795 6736 c-5 -17 -3 -48 3 -73 7 -24 12 -56 12 -72 0 -39 9 -61
26 -61 27 0 13 118 -26 215 -7 18 -8 17 -15 -9z"/>
<path d="M14372 6570 c0 -14 2 -19 5 -12 2 6 2 18 0 25 -3 6 -5 1 -5 -13z"/>
<path d="M13922 6530 c0 -19 2 -27 5 -17 2 9 2 25 0 35 -3 9 -5 1 -5 -18z"/>
<path d="M13745 6440 c-4 -6 7 -10 24 -10 17 0 31 5 31 10 0 6 -11 10 -24 10
-14 0 -28 -4 -31 -10z"/>
<path d="M13695 6410 c-3 -5 -2 -10 4 -10 5 0 16 -3 25 -6 11 -4 16 -1 16 10
0 18 -35 22 -45 6z"/>
<path d="M13893 6375 c3 -16 8 -41 11 -55 3 -14 8 -46 11 -73 9 -67 25 -48 25
30 0 56 -4 70 -26 97 l-27 31 6 -30z"/>
<path d="M13814 6366 c-7 -18 0 -94 10 -103 12 -12 21 10 21 52 0 49 -20 81
-31 51z"/>
<path d="M13920 6095 c0 -15 4 -24 10 -20 6 3 10 12 10 20 0 8 -4 17 -10 20
-6 4 -10 -5 -10 -20z"/>
<path d="M13852 6057 c-12 -15 3 -61 18 -52 12 8 13 52 1 59 -5 3 -13 0 -19
-7z"/>
<path d="M13960 5975 c0 -8 4 -15 9 -15 5 0 14 7 21 15 10 13 9 15 -9 15 -12
0 -21 -6 -21 -15z"/>
<path d="M13850 5950 c0 -5 5 -10 11 -10 5 0 7 5 4 10 -3 6 -8 10 -11 10 -2 0
-4 -4 -4 -10z"/>
<path d="M13861 5788 c0 -20 3 -39 8 -42 5 -3 12 -34 16 -67 5 -41 10 -57 16
-48 14 23 10 73 -8 99 -9 13 -20 40 -24 59 l-7 36 -1 -37z"/>
<path d="M13962 5789 c2 -7 10 -15 17 -17 8 -3 12 1 9 9 -2 7 -10 15 -17 17
-8 3 -12 -1 -9 -9z"/>
<path d="M9097 7294 c-4 -4 -7 -23 -7 -41 0 -38 23 -42 28 -5 4 25 -11 56 -21
46z"/>
<path d="M9289 7118 c0 -2 -3 -17 -5 -35 -6 -36 5 -46 36 -35 20 7 20 9 6 21
-9 8 -16 22 -16 32 0 15 -17 28 -21 17z"/>
<path d="M10320 6730 c0 -5 7 -10 15 -10 8 0 15 5 15 10 0 6 -7 10 -15 10 -8
0 -15 -4 -15 -10z"/>
<path d="M10250 6670 c0 -38 12 -52 25 -30 9 14 -4 70 -16 70 -5 0 -9 -18 -9
-40z"/>
<path d="M10514 6556 c-10 -25 13 -68 34 -64 21 5 17 36 -8 62 -18 18 -20 19
-26 2z"/>
<path d="M10350 6523 c0 -24 5 -43 10 -43 13 0 13 50 0 70 -7 11 -10 4 -10
-27z"/>
<path d="M9262 6500 c0 -14 2 -19 5 -12 2 6 2 18 0 25 -3 6 -5 1 -5 -13z"/>
<path d="M10030 6440 c0 -5 5 -10 10 -10 6 0 10 5 10 10 0 6 -4 10 -10 10 -5
0 -10 -4 -10 -10z"/>
<path d="M9285 6280 c3 -5 8 -10 11 -10 2 0 4 5 4 10 0 6 -5 10 -11 10 -5 0
-7 -4 -4 -10z"/>
<path d="M9130 6234 c0 -8 5 -12 10 -9 6 4 8 11 5 16 -9 14 -15 11 -15 -7z"/>
<path d="M9907 6243 c-13 -12 -7 -33 8 -33 8 0 15 9 15 20 0 20 -11 26 -23 13z"/>
<path d="M10320 5885 c0 -8 5 -15 10 -15 6 0 10 7 10 15 0 8 -4 15 -10 15 -5
0 -10 -7 -10 -15z"/>
<path d="M10348 5844 c-3 -2 -3 -16 0 -29 5 -28 22 -24 22 5 0 19 -13 34 -22
24z"/>
<path d="M9160 5804 c0 -8 5 -12 10 -9 6 3 10 10 10 16 0 5 -4 9 -10 9 -5 0
-10 -7 -10 -16z"/>
<path d="M10345 5707 c-10 -52 -2 -102 15 -102 8 0 16 11 18 25 2 14 8 29 13
35 15 15 10 62 -7 69 -27 11 -33 7 -39 -27z"/>
<path d="M10563 5504 c-3 -8 1 -22 10 -31 13 -14 16 -13 22 6 11 35 -19 59
-32 25z"/>
<path d="M12400 7255 c0 -22 76 -99 89 -91 16 10 13 36 -4 36 -8 0 -27 16 -42
35 -30 38 -43 44 -43 20z"/>
<path d="M12705 7161 c-3 -5 4 -13 16 -16 23 -8 34 -1 24 14 -8 13 -32 14 -40
2z"/>
<path d="M12636 7152 c-13 -12 -5 -38 19 -64 14 -15 25 -33 25 -41 0 -33 -69
-63 -85 -37 -3 6 -13 10 -21 10 -26 0 -15 -39 24 -78 90 -94 122 -133 122
-147 0 -26 -46 -48 -88 -40 -29 5 -42 2 -51 -9 -11 -13 -10 -19 10 -36 13 -10
38 -22 54 -25 19 -4 37 -17 47 -36 19 -32 68 -42 68 -13 0 8 4 13 9 10 5 -4 3
-19 -6 -36 -18 -37 -10 -66 28 -102 16 -15 29 -32 29 -37 0 -6 6 -11 14 -11 7
0 26 -10 40 -21 l28 -22 29 36 c16 19 40 38 54 41 28 7 25 26 -5 26 -30 0 -33
19 -6 31 14 7 28 20 31 30 6 17 50 37 60 27 3 -2 6 -15 7 -28 2 -19 -3 -25
-30 -32 l-32 -9 25 -34 c21 -27 24 -38 16 -54 -6 -11 -23 -21 -38 -23 -18 -2
-29 -10 -32 -23 -2 -11 -8 -23 -15 -27 -6 -4 3 -8 19 -8 35 0 55 15 55 42 0
16 3 17 21 8 29 -16 22 -55 -11 -55 -29 0 -40 -11 -40 -42 0 -14 6 -23 15 -23
8 0 15 5 15 10 0 21 39 9 58 -17 26 -35 33 -28 36 38 2 29 8 55 14 57 12 4 62
49 62 55 0 3 -8 7 -19 10 -10 2 -21 17 -24 33 -3 16 -9 41 -13 57 -5 23 -4 26
10 21 18 -7 112 63 101 75 -4 3 -39 7 -78 8 -75 2 -97 15 -97 55 0 10 -11 41
-25 68 -14 27 -25 57 -25 66 0 29 -39 82 -78 104 -23 14 -56 23 -87 24 -28 1
-56 5 -63 10 -19 11 -45 -13 -32 -30 11 -12 13 -121 3 -156 -5 -22 -23 -24
-23 -3 0 8 -11 24 -24 37 -18 17 -25 38 -30 84 l-7 61 41 28 c22 15 40 32 40
37 0 5 -13 14 -30 19 -16 6 -30 14 -30 19 0 12 -78 89 -84 82z m248 -611 c4
-5 3 -17 0 -26 -10 -25 -58 -16 -62 13 -3 19 1 22 27 22 16 0 32 -4 35 -9z"/>
<path d="M12943 7103 c-7 -2 -13 -17 -13 -33 0 -23 4 -27 19 -23 20 5 31 29
24 51 -5 13 -10 14 -30 5z"/>
<path d="M12435 7090 c-3 -5 -1 -10 4 -10 6 0 11 5 11 10 0 6 -2 10 -4 10 -3
0 -8 -4 -11 -10z"/>
<path d="M12980 7001 c0 -12 6 -21 16 -21 9 0 14 7 12 17 -5 25 -28 28 -28 4z"/>
<path d="M13303 6668 c2 -7 12 -13 22 -13 10 0 20 6 23 13 2 7 -6 12 -23 12
-17 0 -25 -5 -22 -12z"/>
<path d="M13260 6500 c0 -5 6 -10 14 -10 8 0 18 5 21 10 3 6 -3 10 -14 10 -12
0 -21 -4 -21 -10z"/>
<path d="M13210 6340 c0 -5 11 -10 25 -10 14 0 25 5 25 10 0 6 -11 10 -25 10
-14 0 -25 -4 -25 -10z"/>
<path d="M13263 6266 c-30 -14 -29 -47 0 -74 21 -20 25 -21 45 -6 29 20 28 32
-4 44 -19 8 -24 15 -19 30 3 11 5 19 3 19 -2 -1 -13 -6 -25 -13z"/>
<path d="M12737 6253 c-11 -10 -8 -53 3 -53 6 0 10 14 10 30 0 31 -2 35 -13
23z"/>
<path d="M12553 5863 c-20 -7 -15 -23 7 -23 11 0 20 4 20 9 0 13 -12 19 -27
14z"/>
<path d="M8236 6975 c4 -8 8 -15 10 -15 2 0 4 7 4 15 0 8 -4 15 -10 15 -5 0
-7 -7 -4 -15z"/>
<path d="M14711 3734 c0 -11 3 -14 6 -6 3 7 2 16 -1 19 -3 4 -6 -2 -5 -13z"/>
<path d="M5620 10658 c0 -79 5 -215 10 -303 6 -88 12 -317 15 -510 6 -455 13
-750 25 -1065 5 -140 12 -408 15 -595 7 -502 17 -775 27 -782 24 -14 30 21 28
154 -1 76 -3 167 -5 203 -13 249 -20 544 -30 1446 -4 298 -9 555 -12 570 -2
16 -7 253 -10 527 l-5 497 -29 0 -29 0 0 -142z"/>
<path d="M15720 10790 c0 -12 37 -12 65 0 15 7 10 9 -22 9 -24 1 -43 -3 -43
-9z"/>
<path d="M5466 9072 c-8 -24 7 -107 19 -107 12 0 19 68 11 102 -7 27 -22 30
-30 5z"/>
<path d="M15800 8841 c0 -12 5 -21 10 -21 6 0 10 6 10 14 0 8 -4 18 -10 21 -5
3 -10 -3 -10 -14z"/>
<path d="M14641 8791 c-8 -5 -11 -16 -6 -30 12 -37 105 -22 105 17 0 21 -72
30 -99 13z"/>
<path d="M5466 8724 c-20 -20 -20 -34 1 -85 l16 -42 19 23 c22 27 23 52 3 90
-18 35 -19 35 -39 14z"/>
<path d="M7197 8686 c-4 -10 -5 -21 -2 -24 9 -9 17 6 13 25 -3 17 -4 17 -11
-1z"/>
<path d="M5481 8347 c-9 -24 -14 -59 -12 -89 1 -22 41 -35 52 -17 10 16 12 90
3 113 -9 23 -33 19 -43 -7z"/>
<path d="M5497 7974 c-18 -19 -2 -104 20 -104 11 0 13 12 11 52 -3 48 -15 68
-31 52z"/>
<path d="M7162 7900 c0 -14 2 -19 5 -12 2 6 2 18 0 25 -3 6 -5 1 -5 -13z"/>
<path d="M5497 7593 c-11 -10 -8 -62 3 -84 21 -38 50 -17 50 36 0 13 -3 30 -6
39 -6 16 -35 22 -47 9z"/>
<path d="M4570 7460 c-11 -7 -5 -10 23 -10 20 0 37 5 37 10 0 13 -40 13 -60 0z"/>
<path d="M6925 7431 c-112 -8 -62 -20 94 -22 116 -1 143 3 128 18 -10 9 -127
11 -222 4z"/>
<path d="M4400 7379 c0 -5 5 -7 10 -4 6 3 10 8 10 11 0 2 -4 4 -10 4 -5 0 -10
-5 -10 -11z"/>
<path d="M5704 7293 c3 -27 8 -91 11 -143 2 -52 6 -95 7 -95 2 0 15 9 30 20
37 28 47 92 19 124 -13 15 -21 38 -21 60 0 37 -23 81 -42 81 -6 0 -8 -18 -4
-47z"/>
<path d="M5835 7296 c10 -14 21 -23 26 -20 12 7 3 21 -22 35 -20 10 -20 10 -4
-15z"/>
<path d="M5020 7280 c0 -5 -11 -12 -25 -16 -14 -3 -25 -10 -25 -15 0 -15 48
-10 54 6 3 8 12 15 20 15 8 0 18 5 21 10 4 6 -5 10 -19 10 -14 0 -26 -4 -26
-10z"/>
<path d="M5240 7239 c0 -5 5 -7 10 -4 6 3 10 8 10 11 0 2 -4 4 -10 4 -5 0 -10
-5 -10 -11z"/>
<path d="M15102 7222 c18 -41 25 -46 20 -13 -2 16 -10 32 -18 35 -11 4 -11 0
-2 -22z"/>
<path d="M4256 7231 c-8 -13 4 -42 15 -35 12 7 12 44 0 44 -6 0 -12 -4 -15 -9z"/>
<path d="M7900 7185 c0 -8 5 -15 10 -15 6 0 10 7 10 15 0 8 -4 15 -10 15 -5 0
-10 -7 -10 -15z"/>
<path d="M5240 7126 c0 -9 7 -16 16 -16 9 0 14 5 12 12 -6 18 -28 21 -28 4z"/>
<path d="M14896 7109 c-18 -27 -10 -48 9 -22 9 11 26 18 49 18 50 0 50 19 -1
23 -33 2 -44 -1 -57 -19z"/>
<path d="M4763 7017 c-28 -19 -31 -26 -27 -54 5 -27 -10 -150 -32 -261 -3 -12
-16 -32 -29 -44 -25 -21 -25 -22 -7 -42 29 -33 31 -46 31 -208 0 -84 0 -170 1
-191 1 -22 -3 -44 -8 -50 -20 -25 -20 -56 -2 -62 15 -5 20 -20 25 -73 3 -37
10 -76 15 -87 5 -11 14 -31 20 -45 5 -14 14 -32 19 -40 5 -8 12 -23 15 -32 6
-21 60 -15 125 14 56 25 77 46 63 60 -7 7 -7 19 -1 37 6 14 14 74 19 134 7 86
13 114 31 139 l22 31 -21 16 c-19 15 -20 24 -17 166 2 83 4 181 4 218 1 60 4
70 21 74 26 7 25 20 -2 42 -11 10 -27 40 -34 67 -13 49 -26 86 -43 114 -5 8
-13 29 -18 45 -6 23 -15 31 -38 33 -17 2 -34 8 -39 13 -16 15 -59 8 -93 -14z"/>
<path d="M5260 7030 c0 -5 7 -10 15 -10 8 0 15 5 15 10 0 6 -7 10 -15 10 -8 0
-15 -4 -15 -10z"/>
<path d="M6722 7015 c0 -16 2 -22 5 -12 2 9 2 23 0 30 -3 6 -5 -1 -5 -18z"/>
<path d="M5812 6818 c2 -13 8 -23 13 -23 6 0 11 10 13 23 2 15 -2 22 -13 22
-11 0 -15 -7 -13 -22z"/>
<path d="M5246 6815 c-3 -8 -1 -15 4 -15 6 0 10 7 10 15 0 8 -2 15 -4 15 -2 0
-6 -7 -10 -15z"/>
<path d="M4400 6759 c0 -5 5 -7 10 -4 6 3 10 8 10 11 0 2 -4 4 -10 4 -5 0 -10
-5 -10 -11z"/>
<path d="M5316 6725 c-11 -8 -28 -15 -38 -15 -10 0 -18 -5 -18 -11 0 -5 -12
-14 -28 -20 -15 -5 -33 -19 -41 -32 -11 -17 -11 -19 0 -9 7 6 23 12 35 12 13
0 29 6 36 14 8 7 25 17 38 21 28 8 60 34 60 47 0 13 -23 9 -44 -7z"/>
<path d="M6262 6671 c-19 -12 14 -24 41 -15 16 5 17 8 6 15 -18 11 -30 11 -47
0z"/>
<path d="M7331 6644 c0 -11 3 -14 6 -6 3 7 2 16 -1 19 -3 4 -6 -2 -5 -13z"/>
<path d="M5327 6531 c-6 -31 1 -71 13 -71 10 0 20 37 20 73 0 36 -26 36 -33
-2z"/>
<path d="M5201 6488 c21 -40 59 -53 59 -20 0 25 -19 42 -47 42 -21 0 -23 -2
-12 -22z"/>
<path d="M6776 6493 c-15 -16 -4 -61 21 -82 22 -20 25 -21 19 -5 -4 11 -10 34
-13 52 -6 33 -15 46 -27 35z"/>
<path d="M6869 6488 c-3 -30 3 -74 11 -82 12 -12 22 30 15 64 -7 30 -24 41
-26 18z"/>
<path d="M7260 6440 c0 -5 14 -10 30 -10 17 0 30 5 30 10 0 6 -13 10 -30 10
-16 0 -30 -4 -30 -10z"/>
<path d="M7390 6420 c0 -18 4 -29 10 -25 6 3 10 15 10 25 0 10 -4 22 -10 25
-6 4 -10 -7 -10 -25z"/>
<path d="M4434 6405 c-11 -28 4 -45 39 -45 46 0 51 9 21 37 -29 26 -52 30 -60
8z"/>
<path d="M7215 6411 c-3 -5 -1 -12 5 -16 12 -7 30 2 30 16 0 12 -27 12 -35 0z"/>
<path d="M4347 6384 c-4 -4 -7 -24 -7 -45 l0 -38 26 24 c14 13 24 32 22 42 -3
18 -29 29 -41 17z"/>
<path d="M7320 6363 c0 -10 4 -25 10 -33 8 -12 10 -12 16 3 7 20 -1 47 -16 47
-5 0 -10 -8 -10 -17z"/>
<path d="M7420 6345 c0 -8 5 -15 10 -15 6 0 10 7 10 15 0 8 -4 15 -10 15 -5 0
-10 -7 -10 -15z"/>
<path d="M5715 6340 c3 -5 8 -10 11 -10 2 0 4 5 4 10 0 6 -5 10 -11 10 -5 0
-7 -4 -4 -10z"/>
<path d="M6354 6247 c-3 -10 3 -28 18 -46 26 -34 36 -37 45 -15 4 10 -6 27
-25 47 -27 26 -32 28 -38 14z"/>
<path d="M6430 6251 c0 -12 28 -22 35 -12 3 5 -2 12 -11 15 -21 8 -24 8 -24
-3z"/>
<path d="M6845 6241 c-6 -11 9 -23 19 -14 9 9 7 23 -3 23 -6 0 -12 -4 -16 -9z"/>
<path d="M4475 6210 c-3 -5 1 -10 9 -10 9 0 16 5 16 10 0 6 -4 10 -9 10 -6 0
-13 -4 -16 -10z"/>
<path d="M4421 6191 c-26 -7 -41 -31 -19 -31 30 0 58 13 58 26 0 15 -3 15 -39
5z"/>
<path d="M6850 6175 c0 -16 7 -39 15 -49 8 -11 15 -36 16 -55 0 -29 2 -32 9
-16 17 40 11 91 -15 121 l-25 29 0 -30z"/>
<path d="M4437 6063 c-10 -10 -9 -63 2 -63 11 0 22 53 12 63 -4 4 -10 4 -14 0z"/>
<path d="M7360 6040 c0 -23 4 -30 20 -30 13 0 20 7 20 20 0 10 -9 24 -20 30
-18 10 -20 8 -20 -20z"/>
<path d="M6972 6026 c1 -10 8 -17 13 -17 15 1 12 24 -3 29 -9 3 -13 -2 -10
-12z"/>
<path d="M6582 5985 c5 -38 2 -50 -13 -63 -10 -9 -19 -21 -19 -26 0 -5 -8 -18
-17 -28 -21 -24 -5 -45 24 -30 32 18 62 180 34 190 -11 4 -13 -5 -9 -43z"/>
<path d="M7480 5986 c0 -9 7 -16 16 -16 9 0 14 5 12 12 -6 18 -28 21 -28 4z"/>
<path d="M4566 5974 c-17 -16 -13 -34 6 -34 11 0 37 29 38 43 0 13 -28 7 -44
-9z"/>
<path d="M6822 5960 c0 -14 2 -19 5 -12 2 6 2 18 0 25 -3 6 -5 1 -5 -13z"/>
<path d="M7360 5938 c0 -19 2 -20 10 -8 13 19 13 30 0 30 -5 0 -10 -10 -10
-22z"/>
<path d="M4400 5920 c0 -5 5 -10 10 -10 6 0 10 5 10 10 0 6 -4 10 -10 10 -5 0
-10 -4 -10 -10z"/>
<path d="M4645 5920 c-3 -5 1 -10 9 -10 9 0 16 5 16 10 0 6 -4 10 -9 10 -6 0
-13 -4 -16 -10z"/>
<path d="M4397 5851 c-5 -19 9 -41 25 -41 4 0 12 10 19 21 9 17 8 23 -2 30
-22 14 -36 10 -42 -10z"/>
<path d="M5155 5861 c-40 -7 -39 -7 23 -15 65 -8 79 -5 67 13 -7 12 -26 12
-90 2z"/>
<path d="M5383 5823 c-23 -35 -30 -63 -15 -63 10 0 45 77 40 89 -2 4 -13 -7
-25 -26z"/>
<path d="M7392 5755 c0 -16 2 -22 5 -12 2 9 2 23 0 30 -3 6 -5 -1 -5 -18z"/>
<path d="M7491 5764 c0 -11 3 -14 6 -6 3 7 2 16 -1 19 -3 4 -6 -2 -5 -13z"/>
<path d="M4430 5761 c0 -5 8 -23 18 -41 16 -30 16 -32 -1 -45 -25 -18 -19 -60
8 -60 17 0 20 8 23 57 3 61 -9 98 -33 98 -8 0 -15 -4 -15 -9z"/>
<path d="M4653 5607 c-23 -18 -54 -40 -68 -50 -30 -22 -32 -34 -4 -42 14 -5
27 0 43 17 12 12 44 39 69 58 25 19 46 38 47 43 1 18 -49 3 -87 -26z"/>
<path d="M6850 5579 c0 -23 86 -129 105 -129 3 0 5 24 3 53 -3 44 -6 52 -21
49 -10 -2 -34 6 -53 17 -19 11 -34 16 -34 10z"/>
</g>
</svg>
