<?xml version="1.0" standalone="no"?>
<!DOCTYPE svg PUBLIC "-//W3C//DTD SVG 20010904//EN"
 "http://www.w3.org/TR/2001/REC-SVG-20010904/DTD/svg10.dtd">
<svg version="1.0" xmlns="http://www.w3.org/2000/svg"
 width="800.000000pt" height="1422.000000pt" viewBox="0 0 800.000000 1422.000000"
 preserveAspectRatio="xMidYMid meet">

<g transform="translate(0.000000,1422.000000) scale(0.100000,-0.100000)"
fill="#000000" stroke="none">
<path d="M0 7110 l0 -7110 4000 0 4000 0 0 7110 0 7110 -4000 0 -4000 0 0
-7110z m2372 1029 c27 -31 29 -80 26 -484 -3 -411 -4 -415 -58 -433 -35 -12
-73 3 -93 37 -15 26 -17 70 -17 433 1 315 4 408 14 427 29 52 93 62 128 20z
m3468 14 c16 -9 31 -26 34 -37 3 -12 6 -208 6 -437 l0 -416 -22 -20 c-32 -28
-54 -34 -84 -23 -51 20 -54 45 -54 475 0 427 2 444 53 465 31 12 36 12 67 -7z
m-3692 -83 c11 -11 24 -35 27 -52 3 -18 5 -179 3 -356 l-3 -324 -29 -25 c-35
-29 -80 -26 -108 8 -16 19 -18 53 -18 371 l0 349 25 24 c30 30 73 32 103 5z
m3913 7 c37 -28 39 -49 39 -386 0 -224 -4 -338 -11 -355 -16 -33 -62 -52 -94
-38 -55 25 -56 30 -53 406 l3 347 25 19 c28 22 67 25 91 7z m-4142 -153 c20
-25 21 -39 21 -236 0 -208 0 -209 -25 -233 -43 -44 -103 -29 -126 32 -13 34
-11 375 1 410 14 37 37 53 76 53 23 0 39 -8 53 -26z m4392 0 c24 -25 24 -27
24 -234 0 -207 0 -209 -24 -234 -42 -44 -102 -30 -127 29 -18 43 -20 374 -3
408 33 64 87 77 130 31z m-3601 -197 c16 -8 25 -21 25 -37 0 -35 -37 -50 -121
-50 -92 0 -134 14 -134 45 0 13 9 30 21 38 26 19 174 22 209 4z m2238 -3 c27
-19 28 -38 2 -64 -20 -20 -33 -20 -869 -20 -528 0 -859 4 -875 10 -35 13 -37
66 -3 80 12 5 390 9 872 9 754 1 853 -1 873 -15z m687 -8 c34 -51 -6 -76 -120
-76 -93 0 -125 13 -125 52 0 39 23 47 137 47 87 1 94 -1 108 -23z m-3171
-1918 c-5 -7 -2 -9 9 -5 11 4 14 2 10 -9 -4 -10 0 -13 13 -8 11 3 7 -2 -8 -11
-16 -8 -28 -20 -28 -25 0 -6 -6 -10 -14 -10 -7 0 -29 -17 -48 -37 -34 -38 -40
-43 -58 -43 -5 0 -7 -7 -4 -15 4 -8 1 -15 -6 -15 -7 0 -10 -7 -6 -16 3 -8 2
-12 -4 -9 -5 3 -12 -7 -16 -22 -4 -15 -10 -32 -14 -38 -9 -12 -60 -163 -60
-178 0 -17 14 2 28 36 l12 32 -5 -37 c-3 -20 -1 -39 4 -42 5 -3 12 15 16 39 3
25 12 60 19 78 7 18 21 53 30 80 10 26 22 45 27 42 5 -4 6 2 2 11 -5 13 -3 15
7 9 10 -6 12 -4 7 8 -4 11 -2 14 7 11 7 -3 24 13 40 36 14 22 32 40 38 40 7 0
3 -7 -8 -16 -18 -14 -18 -15 4 -4 14 7 21 17 18 26 -3 7 -1 13 3 11 5 -1 20
10 33 24 24 26 25 26 47 8 30 -25 62 -24 68 1 3 11 9 20 14 20 19 0 112 -52
136 -76 13 -13 35 -24 49 -24 17 0 28 -7 31 -20 3 -11 11 -20 17 -20 17 0 76
-113 76 -147 0 -17 9 -40 20 -53 11 -13 20 -29 20 -37 0 -7 7 -13 15 -13 8 0
15 -5 15 -11 0 -5 -4 -7 -10 -4 -5 3 -10 1 -10 -4 0 -6 5 -11 11 -11 5 0 7 -4
4 -10 -3 -5 -1 -10 5 -10 6 0 8 -5 3 -12 -12 -20 -10 -71 4 -93 7 -11 13 -34
13 -52 0 -37 19 -56 21 -21 l2 23 4 -23 c3 -13 -2 -31 -9 -40 -10 -11 -12 -27
-7 -47 l7 -30 2 35 2 35 8 -32 c19 -81 -11 -367 -57 -543 -13 -52 -25 -99 -26
-105 -2 -5 -5 -14 -8 -20 -4 -5 -12 -27 -18 -47 -7 -21 -16 -38 -21 -38 -4 0
-15 -17 -24 -37 -23 -53 -84 -136 -110 -150 -13 -6 -33 -13 -47 -15 -13 -2
-38 -12 -56 -21 -36 -19 -113 -17 -228 8 -39 8 -83 15 -98 15 -59 0 -153 88
-209 195 -45 85 -90 275 -65 275 5 0 6 12 2 27 -3 15 -6 76 -6 136 0 99 -1
108 -16 95 -15 -11 -16 -10 -10 12 4 14 7 34 8 45 1 17 2 16 9 -5 8 -25 8 -25
10 5 0 17 4 61 9 98 6 54 4 67 -6 63 -7 -3 -13 -1 -13 3 0 5 8 12 17 15 15 6
15 8 3 16 -8 6 -10 10 -4 10 7 0 14 41 18 110 7 109 24 178 41 163 4 -5 5 0 2
10 -4 10 -1 17 6 17 7 0 6 4 -3 10 -12 8 -13 13 -2 30 6 11 12 28 13 37 1 12
4 10 9 -7 l8 -25 2 25 c1 14 2 29 1 34 -1 5 2 12 6 15 11 8 32 42 39 64 4 9
10 17 15 17 5 0 9 9 9 21 0 40 73 119 155 167 26 15 48 15 39 0z m1916 -148
c4 0 10 7 14 15 3 8 17 15 31 15 21 0 27 -7 37 -44 10 -39 14 -43 30 -35 10 5
18 7 18 4 0 -3 10 1 23 10 13 8 26 13 29 10 12 -12 50 -13 115 -4 121 18 227
30 283 33 52 3 111 10 174 23 19 3 26 2 22 -6 -5 -7 2 -11 17 -11 14 0 30 -7
37 -15 7 -8 21 -15 31 -15 10 0 41 -5 69 -11 46 -10 50 -12 33 -25 -10 -7 -13
-14 -8 -14 6 0 3 -5 -5 -10 -13 -9 -13 -11 0 -20 13 -8 12 -10 -5 -11 -11 -1
-31 -1 -45 0 -25 1 -25 1 -5 -15 l20 -17 -20 8 c-44 16 -53 16 -70 -2 -17 -16
-18 -17 -12 0 3 9 2 17 -3 17 -5 0 -14 -8 -19 -17 -6 -10 -11 -12 -11 -5 0 15
-50 16 -50 1 0 -6 7 -8 16 -5 8 3 13 2 10 -3 -3 -5 -40 -12 -81 -16 -41 -4
-75 -11 -75 -16 0 -5 -26 -9 -57 -10 -32 0 -80 -5 -108 -10 -149 -29 -142 -26
-149 -67 -3 -20 -1 -41 3 -45 12 -12 2 -39 -10 -31 -5 3 -9 0 -9 -5 0 -6 4
-11 9 -11 6 0 9 -8 9 -17 -1 -10 2 -29 5 -43 4 -14 4 -19 1 -12 -11 24 -26 12
-20 -15 5 -21 4 -24 -3 -12 -14 22 -15 138 -2 172 14 35 14 57 1 57 -5 0 -10
-7 -10 -16 0 -8 -5 -12 -11 -8 -8 4 -9 -40 -5 -155 4 -103 2 -161 -4 -161 -6
0 -10 -18 -10 -40 0 -22 4 -40 9 -40 4 0 6 -11 4 -24 -4 -20 -2 -24 14 -20 16
5 19 14 17 59 -1 29 -5 62 -8 73 -7 22 8 39 19 22 3 -5 1 -10 -5 -10 -7 0 -8
-6 0 -19 5 -11 10 -41 10 -67 0 -39 3 -46 18 -41 9 3 58 17 107 33 50 15 101
28 115 29 14 2 32 5 40 8 8 3 32 11 53 17 20 6 44 18 52 27 9 8 33 17 54 20
32 4 41 2 50 -14 7 -15 17 -19 36 -16 14 3 25 1 25 -5 0 -5 14 -9 31 -8 36 1
49 -27 21 -45 -13 -7 -14 -12 -4 -15 6 -3 10 -10 6 -15 -7 -12 3 -11 29 2 16
9 15 5 -7 -16 -16 -15 -34 -28 -40 -29 -6 -1 -22 -8 -36 -16 -14 -7 -25 -12
-25 -11 0 1 -13 -2 -28 -8 -16 -6 -33 -11 -38 -11 -5 0 -9 -3 -9 -7 0 -5 -13
-8 -29 -9 -16 -1 -36 -8 -45 -17 -19 -18 -209 -80 -248 -80 -15 0 -25 -3 -23
-7 2 -3 -5 -6 -16 -6 -10 0 -19 4 -19 8 0 4 5 8 10 8 6 0 10 5 10 11 0 7 -10
9 -27 4 -34 -8 -42 -16 -24 -23 8 -3 9 -7 3 -11 -6 -3 -11 -35 -12 -71 -1 -74
9 -296 14 -323 2 -9 0 -15 -5 -11 -5 3 -9 16 -9 30 0 14 -7 27 -16 31 -13 5
-15 14 -10 44 4 28 3 39 -6 39 -9 0 -9 3 1 9 13 8 13 12 0 27 -10 13 -14 44
-12 126 1 59 -2 108 -6 108 -4 0 -16 -9 -26 -19 -14 -17 -16 -31 -10 -90 4
-39 10 -71 14 -71 3 0 6 -21 7 -47 0 -56 8 -140 19 -200 5 -31 4 -43 -4 -43
-7 0 -9 -5 -5 -12 4 -6 11 -41 14 -77 4 -36 10 -76 13 -88 4 -16 0 -26 -14
-33 -10 -6 -19 -9 -19 -8 0 2 -9 105 -20 228 -11 124 -20 233 -20 243 0 9 -4
17 -8 17 -11 0 -5 -232 8 -334 6 -45 13 -114 17 -155 5 -70 4 -74 -12 -58 -12
13 -21 14 -35 7 -25 -13 -30 -13 -30 3 0 8 -9 22 -20 32 -12 10 -19 24 -16 31
3 7 0 29 -5 49 -8 26 -7 40 2 51 9 11 8 14 -5 14 -14 0 -16 -14 -16 -90 0 -49
-4 -90 -9 -90 -5 0 -11 -14 -15 -31 -3 -18 -10 -28 -17 -24 -6 4 -8 13 -5 21
3 8 1 14 -4 14 -6 0 -10 -4 -10 -10 0 -5 -4 -10 -8 -10 -5 0 -9 33 -10 73 -2
87 -7 149 -21 242 -15 101 -36 331 -36 393 0 36 5 56 15 62 13 9 7 14 -12 11
-4 0 -6 26 -4 59 1 33 0 60 -3 60 -7 0 -6 313 1 326 5 8 -2 84 -15 174 -9 61
-20 90 -33 90 -8 0 -14 6 -14 14 0 8 -5 16 -12 18 -16 6 -1 58 17 58 10 0 15
10 15 28 0 32 16 53 36 45 9 -3 14 2 14 14 0 31 15 38 18 9 2 -14 7 -26 12
-26z m-1126 13 c27 36 76 14 76 -35 0 -24 4 -28 28 -26 15 1 35 7 45 14 12 8
29 9 46 4 15 -4 69 -2 121 6 104 14 255 28 310 29 19 0 37 3 40 6 8 10 100 17
94 8 -3 -5 5 -9 18 -9 14 0 33 -7 44 -15 10 -8 30 -15 44 -15 35 0 108 -22 93
-27 -19 -7 -16 -21 5 -26 13 -4 11 -5 -5 -6 -25 -1 -31 -16 -10 -24 6 -3 2 -6
-9 -6 -12 -1 -24 -8 -28 -16 -3 -8 -11 -15 -18 -14 -10 0 -10 2 0 6 17 7 15
23 -3 23 -8 0 -15 -4 -15 -9 0 -6 -20 -8 -45 -6 -37 4 -45 2 -46 -13 0 -10 -3
-12 -6 -4 -2 6 -18 12 -34 12 -19 0 -28 -4 -24 -11 4 -6 14 -8 22 -5 8 3 12 2
9 -3 -3 -5 -39 -12 -81 -16 -41 -4 -77 -11 -80 -16 -4 -5 -29 -9 -58 -8 -51 0
-121 -11 -220 -36 -30 -8 -39 -30 -35 -85 2 -24 -1 -34 -9 -32 -7 1 -13 -2
-13 -8 0 -5 5 -10 11 -10 6 0 9 -9 6 -20 -3 -11 -1 -20 4 -20 5 0 9 -10 9 -22
0 -18 -2 -20 -9 -9 -7 11 -11 4 -14 -25 -3 -30 -4 -24 -7 26 -2 36 -4 78 -5
93 -1 15 2 30 6 33 5 3 9 22 8 42 -1 33 -2 34 -9 12 -4 -14 -8 -19 -9 -12 -1
6 -5 12 -9 12 -5 0 -7 -20 -5 -45 3 -35 0 -45 -12 -45 -8 0 -15 -4 -15 -10 0
-5 7 -10 15 -10 12 0 15 -18 15 -99 0 -55 3 -108 6 -118 4 -13 3 -15 -4 -4 -5
7 -12 9 -15 5 -8 -14 1 -68 12 -72 7 -2 8 -10 1 -22 -11 -21 -1 -33 19 -20 11
6 13 26 8 84 -3 42 -2 76 3 76 5 0 9 -8 9 -17 1 -47 14 -133 20 -133 4 0 47
14 97 30 49 17 103 32 119 34 17 2 37 6 45 9 8 3 34 11 58 17 23 6 42 15 42
21 0 6 4 8 9 5 5 -4 11 -2 13 4 1 5 17 14 35 19 25 7 35 5 52 -10 11 -10 32
-19 46 -19 15 0 23 -4 20 -10 -4 -6 6 -7 24 -4 23 5 32 2 37 -10 3 -9 11 -13
18 -9 6 4 5 -1 -3 -10 -7 -9 -20 -17 -27 -17 -18 0 -18 -8 1 -27 12 -12 19
-13 30 -3 8 7 15 9 15 4 -1 -10 -46 -45 -63 -48 -16 -4 -45 -15 -94 -37 -24
-10 -49 -19 -57 -19 -8 0 -22 -7 -30 -16 -11 -11 -16 -12 -16 -3 0 9 -4 8 -12
-3 -7 -9 -41 -25 -76 -37 -69 -23 -86 -26 -77 -11 8 13 -5 13 -25 0 -13 -9
-13 -10 0 -11 8 0 -5 -7 -29 -15 -24 -7 -48 -11 -52 -8 -5 3 -9 1 -9 -3 0 -5
-9 -9 -21 -9 -18 0 -18 2 -5 12 21 15 20 24 -2 24 -24 0 -44 -51 -45 -118 -1
-84 13 -314 20 -325 3 -5 0 -8 -8 -5 -7 2 -17 15 -21 29 -6 19 -7 16 -5 -13 2
-21 -1 -38 -5 -38 -4 0 -8 18 -8 40 0 25 5 40 13 40 9 0 9 2 -1 8 -7 5 -14 29
-16 55 -2 26 1 44 5 41 15 -9 10 6 -7 23 -12 12 -15 33 -14 82 3 108 1 151
-10 151 -26 0 -41 -88 -25 -150 4 -14 8 -50 10 -80 1 -30 8 -68 14 -85 9 -20
9 -31 2 -33 -7 -2 -8 -10 -2 -21 6 -10 10 -55 10 -102 0 -72 7 -128 22 -189 3
-9 -5 -16 -18 -18 -21 -3 -23 0 -23 45 0 78 -32 363 -41 358 -11 -8 -2 -204
15 -334 18 -127 20 -162 8 -145 -11 17 -35 22 -54 13 -13 -7 -20 -4 -28 10 -5
11 -16 26 -24 34 -13 12 -13 18 0 42 13 25 13 26 -2 14 -15 -12 -16 -9 -13 34
3 34 1 47 -9 47 -11 0 -13 -19 -10 -87 2 -63 0 -87 -9 -90 -7 -3 -13 -15 -13
-28 0 -13 -5 -27 -12 -31 -8 -5 -9 0 -6 14 6 23 -7 31 -15 10 -11 -31 -18 9
-24 131 -3 72 -10 134 -15 137 -4 3 -8 35 -8 72 0 37 -7 117 -15 177 -19 145
-21 238 -7 243 7 2 12 8 12 14 0 6 -6 8 -14 5 -12 -5 -13 5 -10 55 4 40 2 58
-5 53 -6 -3 -11 -2 -11 4 0 5 5 11 11 13 7 2 9 32 4 96 -5 63 -11 90 -19 85
-6 -3 -5 0 2 8 7 7 12 38 12 71 0 32 4 58 9 58 4 0 5 19 0 43 -4 23 -8 59 -9
80 0 22 -5 37 -12 38 -9 0 -10 2 -1 5 11 5 9 15 -13 77 -4 9 -13 17 -22 17 -8
0 -12 3 -9 7 4 3 0 14 -9 24 -12 14 -13 22 -4 38 6 12 15 21 20 21 6 0 10 7
10 15 0 9 7 30 16 47 12 24 18 28 25 17 7 -11 10 -9 16 10 l6 25 9 -25 c9 -22
10 -23 22 -6z m1823 -293 c-14 -11 -31 -20 -39 -20 -7 0 1 9 17 20 39 26 55
26 22 0z m-1137 1 c0 -9 -24 -21 -43 -21 -6 0 -2 7 9 15 22 17 34 19 34 6z
m-1847 -341 c-3 -12 -8 -19 -11 -16 -5 6 5 36 12 36 2 0 2 -9 -1 -20z m1411
-5 c3 -8 1 -15 -4 -15 -6 0 -10 7 -10 15 0 8 2 15 4 15 2 0 6 -7 10 -15z
m1134 -10 c-3 -3 -9 2 -12 12 -6 14 -5 15 5 6 7 -7 10 -15 7 -18z m-480 -135
c-45 -24 -146 -64 -136 -55 9 10 150 73 163 73 6 1 -7 -8 -27 -18z m1117 -10
c-75 -36 -117 -52 -111 -41 3 4 27 16 52 26 26 10 59 24 73 31 14 8 31 14 36
13 6 0 -17 -14 -50 -29z m-588 -537 c-3 -10 -5 -2 -5 17 0 19 2 27 5 18 2 -10
2 -26 0 -35z m-1090 -230 c-3 -10 -5 -4 -5 12 0 17 2 24 5 18 2 -7 2 -21 0
-30z m1130 0 c-3 -10 -5 -4 -5 12 0 17 2 24 5 18 2 -7 2 -21 0 -30z m-2038
-80 c2 -2 0 -3 -6 -3 -6 0 -21 9 -34 21 l-24 20 30 -17 c17 -10 32 -19 34 -21z"/>
<path d="M2625 5730 c-3 -5 -3 -14 0 -20 3 -5 -1 -10 -10 -10 -9 0 -13 -4 -10
-10 4 -6 13 -5 26 3 16 10 21 9 28 -2 6 -9 11 -10 15 -2 8 13 -15 51 -31 51
-6 0 -15 -4 -18 -10z"/>
<path d="M2580 5639 c0 -5 5 -7 10 -4 6 3 10 8 10 11 0 2 -4 4 -10 4 -5 0 -10
-5 -10 -11z"/>
<path d="M2623 5636 c5 -12 2 -16 -11 -14 -9 2 -16 -2 -15 -9 2 -7 -4 -10 -12
-7 -9 4 -15 0 -15 -10 0 -9 -4 -16 -10 -16 -5 0 -10 5 -10 12 0 6 -11 1 -25
-12 -14 -13 -25 -28 -25 -34 0 -6 7 0 16 12 15 21 42 32 29 12 -3 -5 -1 -10 5
-10 6 0 8 -5 4 -11 -5 -8 -9 -8 -14 1 -4 7 -24 -21 -50 -72 -23 -46 -39 -72
-35 -58 4 14 8 36 9 50 0 14 6 28 11 32 15 12 -7 10 -25 -2 -9 -6 -10 -10 -3
-10 8 0 8 -7 0 -29 -6 -17 -15 -27 -21 -24 -5 4 -7 -1 -3 -10 3 -9 0 -18 -9
-21 -9 -4 -12 -11 -7 -18 4 -7 8 -31 9 -53 1 -22 -1 -30 -3 -17 -3 12 -12 22
-21 22 -11 0 -13 -3 -6 -8 24 -15 25 -55 4 -147 -12 -52 -26 -97 -31 -100 -5
-4 -6 2 -3 12 4 15 3 14 -7 -2 -19 -28 -20 -135 -3 -162 13 -20 13 -23 0 -23
-13 0 -15 -13 -11 -75 2 -41 6 -78 9 -83 3 -4 1 -25 -4 -45 -5 -24 -4 -37 2
-37 6 0 8 -17 6 -40 -2 -22 0 -40 5 -40 4 0 6 -4 3 -9 -4 -5 -2 -11 2 -13 5
-1 12 -20 15 -41 4 -27 3 -36 -6 -31 -7 4 -3 -2 7 -14 11 -13 19 -35 18 -55
-2 -43 37 -111 66 -115 26 -4 29 10 6 32 -9 9 -11 16 -4 16 6 0 8 5 5 10 -4 6
-10 8 -15 5 -4 -3 -10 5 -13 16 -4 15 -11 20 -22 15 -9 -3 -13 -2 -10 4 8 13
35 13 35 0 0 -5 4 -10 9 -10 5 0 4 13 -2 30 -8 20 -14 25 -19 17 -6 -9 -10 -8
-18 3 -7 11 -5 16 5 18 15 4 21 22 8 22 -5 0 -6 23 -5 50 4 50 -11 86 -29 74
-5 -3 -7 -9 -4 -14 3 -4 7 -25 10 -46 3 -29 2 -35 -6 -22 -14 24 -27 196 -23
311 3 105 8 153 29 262 8 39 16 84 19 100 3 17 12 56 20 88 8 31 11 57 6 57
-4 0 -6 10 -2 22 5 20 7 19 17 -12 9 -26 13 -30 18 -17 4 10 2 17 -6 17 -8 0
-8 3 2 9 7 5 10 14 7 20 -4 6 -3 11 2 11 5 0 14 17 20 38 12 38 66 112 83 112
17 0 9 -15 -13 -25 -13 -6 -24 -14 -24 -20 -4 -25 -17 -55 -25 -55 -5 0 -9 -8
-9 -17 1 -13 9 -9 31 17 16 20 27 41 24 50 -3 8 -3 11 1 7 4 -4 14 -1 22 6 8
6 13 8 11 2 -18 -40 -33 -65 -40 -65 -5 0 -11 -16 -15 -35 -3 -19 -9 -35 -13
-35 -14 0 -51 -103 -67 -185 -2 -11 -10 -54 -18 -95 -43 -221 -36 -499 15
-665 11 -35 24 -67 29 -70 6 -3 10 -13 10 -21 0 -8 7 -26 16 -40 16 -24 17
-24 33 -6 20 23 73 130 99 202 19 51 25 74 39 142 3 15 9 26 13 23 5 -3 11 -1
15 5 3 5 1 10 -5 10 -8 0 -10 9 -5 28 8 29 11 51 13 119 1 23 8 48 15 55 8 7
17 40 21 73 4 32 10 62 14 65 4 3 8 26 10 51 3 35 -1 48 -12 52 -12 5 -14 12
-7 29 9 26 -15 233 -44 363 -17 79 -29 98 -79 126 -16 10 -18 9 -13 -5z m7
-101 c-7 -9 -15 -13 -19 -10 -3 3 1 10 9 15 21 14 24 12 10 -5z m-273 -697
c-2 -13 -4 -5 -4 17 -1 22 1 32 4 23 2 -10 2 -28 0 -40z"/>
<path d="M2730 5594 c0 -8 5 -12 10 -9 6 4 8 11 5 16 -9 14 -15 11 -15 -7z"/>
<path d="M2961 5408 c1 -7 5 -24 9 -38 8 -24 8 -24 9 7 1 17 -3 35 -9 38 -5 3
-10 0 -9 -7z"/>
<path d="M2490 5374 c0 -8 5 -12 10 -9 6 3 10 10 10 16 0 5 -4 9 -10 9 -5 0
-10 -7 -10 -16z"/>
<path d="M2946 5333 c-2 -10 -1 -36 3 -58 8 -39 8 -38 9 18 0 59 -3 70 -12 40z"/>
<path d="M2908 5315 c2 -14 9 -25 14 -25 6 0 7 7 4 16 -3 9 -6 20 -6 25 0 5
-4 9 -9 9 -4 0 -6 -11 -3 -25z"/>
<path d="M2225 5320 c3 -5 8 -10 11 -10 2 0 4 5 4 10 0 6 -5 10 -11 10 -5 0
-7 -4 -4 -10z"/>
<path d="M2387 5273 c-4 -3 -7 -13 -7 -22 1 -13 3 -13 11 2 11 19 8 33 -4 20z"/>
<path d="M2250 5238 c0 -11 8 -18 20 -18 11 0 20 5 20 11 0 5 -5 7 -11 3 -6
-3 -15 0 -20 7 -7 11 -9 10 -9 -3z"/>
<path d="M2366 5208 c-3 -13 -6 -30 -6 -37 0 -23 16 0 24 32 8 32 -9 37 -18 5z"/>
<path d="M2961 5194 c0 -11 3 -14 6 -6 3 7 2 16 -1 19 -3 4 -6 -2 -5 -13z"/>
<path d="M2272 5125 c-6 -14 -8 -25 -3 -25 8 0 23 41 17 47 -1 2 -8 -8 -14
-22z"/>
<path d="M2965 5070 c-3 -5 -1 -10 4 -10 6 0 11 5 11 10 0 6 -2 10 -4 10 -3 0
-8 -4 -11 -10z"/>
<path d="M3015 5061 c-3 -5 -1 -12 5 -16 5 -3 10 1 10 9 0 18 -6 21 -15 7z"/>
<path d="M2791 5044 c0 -11 3 -14 6 -6 3 7 2 16 -1 19 -3 4 -6 -2 -5 -13z"/>
<path d="M3006 4907 c-4 -62 -9 -138 -12 -169 -4 -34 -2 -58 4 -58 17 0 41
323 25 333 -6 4 -13 -37 -17 -106z"/>
<path d="M2761 4924 c0 -11 3 -14 6 -6 3 7 2 16 -1 19 -3 4 -6 -2 -5 -13z"/>
<path d="M2755 4880 c-3 -5 -1 -10 4 -10 6 0 11 5 11 10 0 6 -2 10 -4 10 -3 0
-8 -4 -11 -10z"/>
<path d="M2962 4860 c0 -14 2 -19 5 -12 2 6 2 18 0 25 -3 6 -5 1 -5 -13z"/>
<path d="M2291 4794 c0 -11 3 -14 6 -6 3 7 2 16 -1 19 -3 4 -6 -2 -5 -13z"/>
<path d="M2191 4784 c0 -11 3 -14 6 -6 3 7 2 16 -1 19 -3 4 -6 -2 -5 -13z"/>
<path d="M2210 4770 c0 -5 -7 -10 -15 -10 -8 0 -15 -5 -15 -11 0 -6 7 -9 15
-5 8 3 15 1 15 -3 0 -5 -6 -12 -12 -14 -8 -3 -6 -6 5 -6 12 -1 17 7 17 29 0
17 -2 30 -5 30 -3 0 -5 -4 -5 -10z"/>
<path d="M2825 4770 c3 -5 8 -10 11 -10 2 0 4 5 4 10 0 6 -5 10 -11 10 -5 0
-7 -4 -4 -10z"/>
<path d="M2806 4751 c-4 -7 -5 -15 -2 -18 9 -9 19 4 14 18 -4 11 -6 11 -12 0z"/>
<path d="M2295 4660 c4 -52 10 -99 13 -105 4 -5 5 -18 4 -27 -2 -10 2 -18 8
-18 8 0 10 11 7 33 -4 17 -11 70 -17 117 -16 116 -24 116 -15 0z"/>
<path d="M2935 4741 c-3 -6 -4 -11 -1 -11 2 0 1 -13 -4 -30 -5 -16 -5 -32 0
-35 4 -3 11 13 15 36 7 41 3 59 -10 40z"/>
<path d="M2838 4693 c7 -3 16 -2 19 1 4 3 -2 6 -13 5 -11 0 -14 -3 -6 -6z"/>
<path d="M2401 4664 c0 -11 3 -14 6 -6 3 7 2 16 -1 19 -3 4 -6 -2 -5 -13z"/>
<path d="M2920 4640 c0 -5 5 -10 10 -10 6 0 10 5 10 10 0 6 -4 10 -10 10 -5 0
-10 -4 -10 -10z"/>
<path d="M2910 4610 c0 -5 5 -10 11 -10 5 0 7 5 4 10 -3 6 -8 10 -11 10 -2 0
-4 -4 -4 -10z"/>
<path d="M2970 4560 c0 -5 5 -10 11 -10 5 0 7 5 4 10 -3 6 -8 10 -11 10 -2 0
-4 -4 -4 -10z"/>
<path d="M2911 4544 c0 -11 3 -14 6 -6 3 7 2 16 -1 19 -3 4 -6 -2 -5 -13z"/>
<path d="M2890 4500 c0 -5 5 -10 11 -10 5 0 7 5 4 10 -3 6 -8 10 -11 10 -2 0
-4 -4 -4 -10z"/>
<path d="M2314 4468 c4 -18 9 -42 11 -53 5 -34 24 -75 35 -75 5 0 10 5 10 10
0 6 -5 10 -11 10 -5 0 -7 5 -4 10 3 6 3 10 -2 10 -4 0 -9 10 -9 23 -1 12 -4
31 -7 42 -3 11 -6 28 -6 38 -1 9 -6 17 -12 17 -8 0 -9 -11 -5 -32z"/>
<path d="M2915 4480 c-3 -5 -1 -10 4 -10 6 0 11 5 11 10 0 6 -2 10 -4 10 -3 0
-8 -4 -11 -10z"/>
<path d="M2867 4427 c-4 -10 -7 -26 -7 -35 1 -15 2 -15 11 1 6 10 9 25 7 35
-3 16 -4 15 -11 -1z"/>
<path d="M2790 4390 c0 -5 5 -10 11 -10 5 0 7 5 4 10 -3 6 -8 10 -11 10 -2 0
-4 -4 -4 -10z"/>
<path d="M2640 4360 c0 -5 5 -10 11 -10 5 0 7 5 4 10 -3 6 -8 10 -11 10 -2 0
-4 -4 -4 -10z"/>
<path d="M2840 4360 c0 -5 5 -10 10 -10 6 0 10 5 10 10 0 6 -4 10 -10 10 -5 0
-10 -4 -10 -10z"/>
<path d="M2760 4340 c0 -5 5 -10 10 -10 6 0 10 5 10 10 0 6 -4 10 -10 10 -5 0
-10 -4 -10 -10z"/>
<path d="M2360 4324 c0 -10 31 -36 37 -31 3 3 -2 13 -10 22 -16 15 -27 19 -27
9z"/>
<path d="M2814 4316 c-3 -8 -4 -22 -2 -31 2 -12 7 -7 15 14 6 18 7 31 2 31 -5
0 -12 -6 -15 -14z"/>
<path d="M2230 4312 c0 -20 66 -105 99 -128 67 -45 64 -24 -8 47 -39 39 -71
75 -71 80 0 5 -4 9 -10 9 -5 0 -10 -4 -10 -8z"/>
<path d="M2750 4310 c0 -5 5 -10 10 -10 6 0 10 5 10 10 0 6 -4 10 -10 10 -5 0
-10 -4 -10 -10z"/>
<path d="M2414 4292 c3 -5 0 -12 -6 -15 -7 -2 -10 -7 -7 -11 3 -4 12 0 18 8 9
11 9 16 0 22 -7 4 -9 3 -5 -4z"/>
<path d="M2667 4235 c-19 -26 -18 -29 7 -19 9 3 13 10 10 15 -3 5 0 9 5 9 6 0
11 5 11 10 0 17 -14 10 -33 -15z"/>
<path d="M4370 5621 c0 -25 6 -27 13 -6 4 8 2 17 -3 20 -6 4 -10 -3 -10 -14z"/>
<path d="M4476 5409 c-8 -42 -8 -51 2 -45 5 3 8 -3 8 -12 0 -177 5 -234 19
-228 8 3 15 1 15 -4 0 -6 -4 -10 -10 -10 -5 0 -10 -4 -10 -10 0 -5 7 -10 16
-10 12 0 15 9 13 43 -1 23 -6 47 -10 52 -8 11 -17 108 -18 203 -1 57 -15 70
-25 21z"/>
<path d="M4595 5370 c-3 -5 -1 -10 4 -10 6 0 11 5 11 10 0 6 -2 10 -4 10 -3 0
-8 -4 -11 -10z"/>
<path d="M4598 5238 c4 -67 8 -88 15 -77 6 9 -5 149 -12 149 -4 0 -5 -33 -3
-72z"/>
<path d="M4593 5136 c4 -10 7 -22 7 -27 0 -5 5 -9 11 -9 15 0 7 43 -10 48 -10
3 -12 0 -8 -12z"/>
<path d="M4545 5100 c3 -5 8 -10 11 -10 2 0 4 5 4 10 0 6 -5 10 -11 10 -5 0
-7 -4 -4 -10z"/>
<path d="M4351 5074 c0 -11 3 -14 6 -6 3 7 2 16 -1 19 -3 4 -6 -2 -5 -13z"/>
<path d="M4510 5065 c0 -8 5 -15 10 -15 6 0 10 7 10 15 0 8 -4 15 -10 15 -5 0
-10 -7 -10 -15z"/>
<path d="M4547 5063 c-2 -5 0 -21 4 -38 7 -29 7 -29 8 8 1 35 -3 46 -12 30z"/>
<path d="M5246 4975 c4 -8 8 -15 10 -15 2 0 4 7 4 15 0 8 -4 15 -10 15 -5 0
-7 -7 -4 -15z"/>
<path d="M5090 4940 c-12 -7 -10 -9 8 -7 12 0 22 5 22 9 0 11 -12 10 -30 -2z"/>
<path d="M4360 4909 c0 -5 5 -7 10 -4 6 3 10 8 10 11 0 2 -4 4 -10 4 -5 0 -10
-5 -10 -11z"/>
<path d="M5000 4900 c0 -5 5 -10 10 -10 6 0 10 5 10 10 0 6 -4 10 -10 10 -5 0
-10 -4 -10 -10z"/>
<path d="M4865 4820 c-3 -5 -2 -10 4 -10 5 0 13 5 16 10 3 6 2 10 -4 10 -5 0
-13 -4 -16 -10z"/>
<path d="M4360 4749 c0 -5 5 -7 10 -4 6 3 10 8 10 11 0 2 -4 4 -10 4 -5 0 -10
-5 -10 -11z"/>
<path d="M4471 4720 c0 -8 4 -24 9 -35 5 -13 9 -14 9 -5 0 8 -4 24 -9 35 -5
13 -9 14 -9 5z"/>
<path d="M4571 4664 c0 -11 3 -14 6 -6 3 7 2 16 -1 19 -3 4 -6 -2 -5 -13z"/>
<path d="M4577 4613 c-4 -3 -7 -11 -7 -17 0 -6 5 -5 12 2 6 6 9 14 7 17 -3 3
-9 2 -12 -2z"/>
<path d="M4491 4504 c0 -11 3 -14 6 -6 3 7 2 16 -1 19 -3 4 -6 -2 -5 -13z"/>
<path d="M4497 4463 c-4 -3 -7 -11 -7 -17 0 -6 5 -5 12 2 6 6 9 14 7 17 -3 3
-9 2 -12 -2z"/>
<path d="M4530 4430 c0 -5 5 -10 10 -10 6 0 10 5 10 10 0 6 -4 10 -10 10 -5 0
-10 -4 -10 -10z"/>
<path d="M4480 4239 c0 -5 5 -7 10 -4 6 3 10 8 10 11 0 2 -4 4 -10 4 -5 0 -10
-5 -10 -11z"/>
<path d="M3230 5620 c0 -5 5 -10 10 -10 6 0 10 5 10 10 0 6 -4 10 -10 10 -5 0
-10 -4 -10 -10z"/>
<path d="M3342 5401 c-14 -46 -15 -61 -2 -41 7 11 10 3 12 -30 1 -25 2 -54 3
-65 1 -11 3 -49 4 -85 1 -46 4 -61 11 -50 9 13 10 13 10 0 0 -9 -5 -21 -12
-28 -9 -9 -7 -12 10 -12 23 0 23 1 2 115 -5 28 -11 89 -13 138 -2 48 -6 90 -9
92 -3 3 -10 -12 -16 -34z"/>
<path d="M3460 5370 c0 -5 5 -10 10 -10 6 0 10 5 10 10 0 6 -4 10 -10 10 -5 0
-10 -4 -10 -10z"/>
<path d="M3460 5228 c0 -24 5 -50 10 -58 7 -11 10 2 10 43 0 31 -4 57 -10 57
-5 0 -10 -19 -10 -42z"/>
<path d="M3405 5190 c3 -5 8 -10 11 -10 2 0 4 5 4 10 0 6 -5 10 -11 10 -5 0
-7 -4 -4 -10z"/>
<path d="M3460 5138 c0 -7 5 -20 10 -28 8 -12 10 -11 10 7 0 12 -4 25 -10 28
-5 3 -10 0 -10 -7z"/>
<path d="M3410 5105 c0 -8 4 -15 10 -15 5 0 7 7 4 15 -4 8 -8 15 -10 15 -2 0
-4 -7 -4 -15z"/>
<path d="M3210 5080 c0 -5 5 -10 10 -10 6 0 10 5 10 10 0 6 -4 10 -10 10 -5 0
-10 -4 -10 -10z"/>
<path d="M3375 5071 c-3 -5 -1 -12 5 -16 5 -3 10 1 10 9 0 18 -6 21 -15 7z"/>
<path d="M3410 5041 c0 -17 5 -31 10 -31 6 0 10 11 10 24 0 14 -4 28 -10 31
-6 4 -10 -7 -10 -24z"/>
<path d="M4110 4980 c0 -5 5 -10 10 -10 6 0 10 5 10 10 0 6 -4 10 -10 10 -5 0
-10 -4 -10 -10z"/>
<path d="M3950 4940 c-12 -8 -10 -9 7 -7 12 2 26 6 29 10 11 11 -19 8 -36 -3z"/>
<path d="M3225 4910 c3 -5 8 -10 11 -10 2 0 4 5 4 10 0 6 -5 10 -11 10 -5 0
-7 -4 -4 -10z"/>
<path d="M3870 4904 c0 -8 5 -12 10 -9 6 4 8 11 5 16 -9 14 -15 11 -15 -7z"/>
<path d="M3798 4843 c7 -3 16 -2 19 1 4 3 -2 6 -13 5 -11 0 -14 -3 -6 -6z"/>
<path d="M3336 4722 c-7 -12 4 -52 15 -52 5 0 6 12 3 28 -8 33 -10 36 -18 24z"/>
<path d="M3340 4630 c0 -5 5 -10 10 -10 6 0 10 5 10 10 0 6 -4 10 -10 10 -5 0
-10 -4 -10 -10z"/>
<path d="M3447 4613 c-4 -3 -7 -11 -7 -17 0 -6 5 -5 12 2 6 6 9 14 7 17 -3 3
-9 2 -12 -2z"/>
<path d="M3450 4555 c0 -15 4 -24 10 -20 6 3 10 12 10 20 0 8 -4 17 -10 20 -6
4 -10 -5 -10 -20z"/>
<path d="M3350 4505 c0 -8 5 -15 10 -15 6 0 10 7 10 15 0 8 -4 15 -10 15 -5 0
-10 -7 -10 -15z"/>
<path d="M3400 4430 c0 -5 5 -10 10 -10 6 0 10 5 10 10 0 6 -4 10 -10 10 -5 0
-10 -4 -10 -10z"/>
<path d="M3345 4240 c3 -5 8 -10 11 -10 2 0 4 5 4 10 0 6 -5 10 -11 10 -5 0
-7 -4 -4 -10z"/>
</g>
</svg>
