<?xml version="1.0" standalone="no"?>
<!DOCTYPE svg PUBLIC "-//W3C//DTD SVG 20010904//EN"
 "http://www.w3.org/TR/2001/REC-SVG-20010904/DTD/svg10.dtd">
<svg version="1.0" xmlns="http://www.w3.org/2000/svg"
 width="450.000000pt" height="300.000000pt" viewBox="0 0 450.000000 300.000000"
 preserveAspectRatio="xMidYMid meet">

<g transform="translate(0.000000,300.000000) scale(0.100000,-0.100000)"
fill="#000000" stroke="none">
<path d="M0 1500 l0 -1500 2250 0 2250 0 0 1500 0 1500 -570 0 -570 0 -1 -37
-1 -38 -10 38 c-14 51 -28 46 -29 -10 0 -36 -3 -43 -9 -28 -5 11 -9 32 -9 48
l-1 27 -796 0 c-740 0 -795 -1 -792 -17 2 -11 23 -22 68 -33 76 -19 116 -38
104 -50 -5 -5 -44 -10 -86 -11 l-78 -3 0 -63 c0 -35 -4 -63 -10 -63 -5 0 -10
9 -10 20 0 10 -8 23 -17 29 -15 8 -19 27 -21 100 l-4 91 -829 0 -829 0 0
-1500z m889 1466 c9 -10 8 -16 -4 -26 -19 -16 -41 1 -32 24 8 20 21 20 36 2z
m741 -22 l0 -36 -37 7 c-21 4 -53 13 -72 21 -51 22 -22 40 67 43 42 1 42 1 42
-35z m977 -10 c-3 -3 -12 -4 -19 -1 -8 3 -5 6 6 6 11 1 17 -2 13 -5z m-1897
-86 c0 -35 -16 -56 -31 -41 -10 10 -10 18 1 38 17 31 30 32 30 3z m187 -14 c8
-21 -13 -42 -28 -27 -13 13 -5 43 11 43 6 0 13 -7 17 -16z m2821 -61 c6 -20 9
-39 7 -42 -3 -2 -5 1 -5 7 0 7 -7 12 -16 12 -11 0 -15 -6 -11 -19 3 -14 1 -18
-10 -14 -12 5 -14 1 -9 -14 5 -15 1 -22 -14 -26 -30 -8 -26 30 5 55 14 11 22
25 18 31 -4 6 0 8 10 4 23 -9 21 10 -2 25 -11 6 -17 18 -13 26 3 9 1 13 -5 9
-5 -3 -10 1 -10 9 0 26 43 -23 55 -63z m-309 3 c-22 -20 -22 -20 -6 0 9 11 17
27 18 35 0 11 2 11 6 0 3 -7 -5 -23 -18 -35z m246 24 c-3 -5 -1 -10 4 -10 6 0
11 -8 11 -17 0 -15 -2 -14 -16 3 -8 10 -12 13 -9 6 4 -7 -1 -22 -11 -33 -9
-10 -13 -19 -8 -20 5 -1 -2 -4 -16 -8 -16 -5 -24 -13 -22 -24 4 -21 -12 -22
-32 -1 -12 12 -16 12 -17 2 0 -10 -2 -10 -6 0 -2 6 -11 12 -19 12 -8 0 -14 5
-14 11 0 5 -4 8 -8 5 -4 -2 -13 -2 -19 2 -9 5 -7 17 4 41 13 27 18 30 25 17 5
-9 6 -21 2 -28 -5 -8 0 -9 15 -5 17 4 21 2 17 -8 -3 -9 0 -12 9 -9 8 3 14 9
13 12 -2 18 4 21 27 12 27 -10 33 -2 13 18 -9 9 -7 11 10 7 11 -2 26 3 33 11
13 16 23 19 14 4z m-3067 -62 c8 -8 15 -8 26 2 19 15 46 6 46 -15 0 -21 -29
-31 -51 -16 -12 7 -19 7 -19 1 0 -11 -30 -13 -54 -4 -9 3 -16 12 -16 19 0 24
48 33 68 13z m312 -14 c0 -8 -7 -14 -15 -14 -15 0 -21 21 -9 33 10 9 24 -2 24
-19z m2501 2 c-7 -8 -11 -22 -9 -32 2 -9 -2 -19 -9 -21 -9 -3 -10 4 -3 26 10
37 20 54 27 47 3 -3 0 -12 -6 -20z m-1444 -28 c-3 -7 -5 -2 -5 12 0 14 2 19 5
13 2 -7 2 -19 0 -25z m40 0 c-3 -8 -6 -5 -6 6 -1 11 2 17 5 13 3 -3 4 -12 1
-19z m1628 -36 c-3 -3 -5 1 -5 9 0 11 -2 11 -10 -1 -8 -12 -10 -11 -10 6 0 30
13 38 22 13 5 -12 6 -24 3 -27z m107 25 c-7 -8 -10 -16 -8 -18 2 -2 -5 -13
-15 -23 -15 -15 -19 -16 -19 -5 0 8 5 20 12 27 7 7 8 12 3 12 -5 0 0 6 11 14
22 17 32 12 16 -7z m-2842 -37 c0 -5 -4 -10 -10 -10 -5 0 -10 5 -10 10 0 6 5
10 10 10 6 0 10 -4 10 -10z m2904 -16 c3 -9 2 -12 -5 -9 -5 4 -17 1 -25 -6 -8
-6 -17 -9 -21 -5 -6 6 25 35 38 36 4 0 10 -7 13 -16z m-2892 -49 c-5 -28 -22
-44 -22 -21 0 21 11 46 20 46 4 0 5 -11 2 -25z m2805 -13 c15 -9 24 -25 29
-57 7 -53 3 -62 -15 -33 -7 11 -8 17 -2 13 6 -3 11 1 11 9 0 9 -4 16 -10 16
-5 0 -7 6 -4 14 3 7 -2 16 -10 19 -10 4 -16 1 -16 -9 0 -19 -44 -39 -67 -29
-15 6 -12 9 17 18 39 14 54 47 21 47 -12 0 -21 4 -21 9 0 15 24 20 35 6 6 -6
20 -17 32 -23z m-2729 -50 c1 -58 -14 -73 -23 -22 -5 31 -4 45 6 51 8 5 15 9
15 9 1 0 2 -17 2 -38z m2990 -35 c25 -16 38 -33 40 -50 3 -39 -16 -48 -90 -39
-56 7 -70 13 -103 45 -28 28 -41 34 -47 25 -5 -8 -8 -2 -8 18 0 17 2 33 5 35
2 3 41 2 85 -2 61 -5 90 -13 118 -32z m-517 -48 c12 -30 11 -33 -12 -50 -13
-11 -29 -23 -36 -29 -18 -15 -20 -13 -28 17 -6 27 -7 27 -21 8 -13 -18 -12
-21 8 -37 13 -10 29 -18 36 -18 7 0 22 -5 33 -11 19 -10 17 -13 -28 -55 -29
-26 -55 -43 -65 -40 -10 2 -23 -3 -29 -10 -7 -8 -18 -13 -26 -10 -7 3 -13 -1
-13 -9 0 -8 -7 -15 -15 -15 -8 0 -15 -7 -15 -15 0 -28 -37 2 -43 34 -5 22 1
45 18 79 30 61 66 97 119 121 23 10 52 30 65 45 31 33 36 33 52 -5z m622 -4
c51 -21 101 -74 122 -127 17 -46 17 -49 0 -75 -13 -19 -15 -28 -6 -31 9 -3 9
-7 0 -18 -16 -20 -30 -17 -22 4 6 15 5 16 -11 2 -16 -13 -20 -12 -32 4 -7 11
-11 22 -9 27 10 15 -14 20 -34 7 -16 -10 -23 -9 -39 5 -23 21 -42 22 -42 2 0
-26 -28 -28 -56 -6 -15 12 -29 19 -31 17 -3 -2 4 -24 15 -48 l19 -45 -46 -13
c-28 -8 -39 -15 -28 -17 38 -10 14 -24 -35 -21 -59 3 -77 25 -29 34 l31 7 -25
23 c-27 25 -33 54 -11 54 8 0 16 7 20 15 7 20 -9 19 -45 -2 -15 -9 -32 -14
-36 -10 -8 9 23 66 46 85 13 10 13 14 3 21 -7 4 -12 12 -11 17 2 5 -1 19 -5
32 -14 43 1 34 24 -13 21 -42 25 -46 51 -40 24 5 28 4 23 -9 -9 -24 6 -19 28
9 11 15 30 25 44 25 14 0 39 10 57 22 18 13 33 23 35 24 1 1 -2 13 -7 28 -12
30 -7 32 42 11z m-3078 -25 c-4 -12 -9 -19 -12 -17 -3 3 -2 15 2 27 4 12 9 19
12 17 3 -3 2 -15 -2 -27z m2602 -37 c-8 -7 -37 9 -31 19 3 5 12 4 20 -3 8 -6
13 -14 11 -16z m-2506 -21 c-7 -2 -18 1 -23 6 -8 8 -4 9 13 5 13 -4 18 -8 10
-11z m-1 -22 c0 -5 -2 -10 -4 -10 -3 0 -8 5 -11 10 -3 6 -1 10 4 10 6 0 11 -4
11 -10z m40 -10 c12 -8 11 -10 -7 -10 -13 0 -23 5 -23 10 0 13 11 13 30 0z
m-85 -10 c8 -13 -5 -13 -25 0 -13 8 -13 10 2 10 9 0 20 -4 23 -10z m30 -33 c7
-6 2 -8 -15 -3 -14 3 -31 6 -37 6 -7 0 -13 5 -13 10 0 12 50 2 65 -13z m738
-27 c31 0 38 -3 27 -10 -8 -5 -34 -10 -57 -10 -33 0 -43 4 -43 16 0 11 5 14
16 10 9 -3 34 -6 57 -6z m555 -7 c-10 -2 -28 -2 -40 0 -13 2 -5 4 17 4 22 1
32 -1 23 -4z m-623 -33 c-4 -6 -74 -9 -183 -8 l-177 2 170 6 c94 3 176 7 183
8 7 1 10 -2 7 -8z m208 3 c-7 -2 -19 -2 -25 0 -7 3 -2 5 12 5 14 0 19 -2 13
-5z m2300 -151 c-5 -11 -7 -11 -15 0 -7 9 -8 7 -3 -7 16 -43 18 -68 6 -61 -13
8 -54 -22 -46 -34 7 -11 -68 -5 -92 8 -12 7 -29 22 -37 34 -9 12 -19 18 -23
14 -4 -4 -1 -11 7 -16 8 -6 11 -10 6 -10 -5 0 -3 -7 4 -15 18 -22 5 -31 -15
-11 -9 9 -23 16 -32 16 -24 0 -8 61 23 86 32 26 97 38 124 24 22 -12 70 3 70
22 1 7 7 2 14 -11 8 -14 11 -31 9 -39z m-2529 -40 c3 -29 1 -63 -4 -75 -6 -16
-9 1 -9 57 -1 89 5 97 13 18z m1572 42 c19 -9 34 -22 34 -28 0 -18 -21 -35
-35 -29 -8 2 -16 -6 -20 -19 -12 -37 -46 -68 -77 -68 -15 0 -28 -2 -28 -4 0
-12 63 -68 108 -96 29 -17 52 -38 52 -46 0 -35 109 -60 155 -36 44 24 97 42
107 36 4 -3 24 -7 43 -9 20 -3 50 -12 67 -21 22 -11 44 -14 77 -10 87 12 146
29 166 47 11 9 54 34 95 53 92 44 109 56 104 71 -6 14 40 37 60 29 14 -5 47
-94 39 -106 -2 -5 -9 -8 -14 -8 -6 0 -7 5 -4 10 3 6 1 10 -4 10 -6 0 -11 -7
-11 -16 0 -12 -6 -15 -26 -10 -17 5 -23 3 -19 -4 7 -11 -19 -24 -84 -41 -30
-7 -40 -13 -31 -19 7 -4 20 -5 29 -2 14 5 14 3 3 -11 -16 -18 -57 -33 -122
-42 l-45 -6 25 22 25 22 -25 -8 c-14 -4 -29 -11 -34 -16 -5 -4 -21 -6 -36 -3
-29 6 -77 -13 -129 -51 -23 -17 -42 -23 -61 -20 -15 3 -49 0 -76 -6 -102 -22
-148 -20 -138 5 4 10 -5 13 -33 11 -21 -2 -30 -1 -20 2 26 7 21 20 -15 37 -17
9 -33 16 -35 16 -9 0 -1 -26 14 -42 14 -15 14 -18 1 -18 -8 0 -23 20 -34 45
-16 39 -19 43 -26 25 -13 -36 -118 -18 -126 21 -2 13 3 15 25 12 24 -3 23 -1
-12 17 -22 11 -50 32 -62 47 -20 25 -20 28 -6 72 8 25 16 65 17 88 2 35 0 41
-11 32 -17 -15 -17 -7 3 35 10 20 22 32 30 29 7 -2 21 0 31 6 26 15 50 13 89
-5z m-1982 -344 c-6 -5 -24 21 -24 34 0 6 6 1 14 -10 8 -10 12 -21 10 -24z
m640 25 c3 -8 1 -15 -4 -15 -6 0 -10 7 -10 15 0 8 2 15 4 15 2 0 6 -7 10 -15z
m-899 -33 c-7 -8 -35 7 -35 18 0 6 7 6 20 -2 10 -7 17 -14 15 -16z m70 -2 c-3
-5 0 -10 7 -10 7 -1 2 -7 -12 -15 l-25 -15 26 6 c19 4 26 1 26 -11 0 -16 -12
-16 -69 1 -22 7 -24 -12 -2 -20 9 -3 26 -6 39 -6 30 0 37 -20 16 -44 -15 -18
-15 -19 1 -13 21 7 34 -21 13 -29 -21 -8 -19 -24 3 -24 9 0 24 -5 32 -10 11
-8 7 -9 -15 -4 -62 13 -69 16 -54 25 8 5 10 9 4 10 -5 0 -1 5 10 10 15 7 12 8
-13 3 -24 -4 -32 -2 -30 8 2 7 10 16 18 20 11 5 9 7 -7 7 -25 1 -31 16 -10 24
7 3 5 6 -6 6 -15 1 -37 36 -37 60 0 5 19 13 43 18 23 6 43 11 45 12 2 0 0 -3
-3 -9z m220 0 c3 -5 1 -10 -4 -10 -6 0 -11 5 -11 10 0 6 2 10 4 10 3 0 8 -4
11 -10z m44 -40 c10 -30 6 -60 -8 -60 -4 0 -5 16 -3 35 3 21 0 35 -7 35 -6 0
-11 5 -11 10 0 22 19 8 29 -20z m-44 -45 c-3 -25 -11 -47 -17 -51 -10 -6 -9
-1 9 89 9 46 16 14 8 -38z m2535 55 c0 -5 -19 -19 -42 -31 -33 -17 -40 -18
-29 -5 7 9 18 16 23 16 5 0 16 7 24 15 18 17 24 19 24 5z m-1720 -15 c9 -10 9
-15 1 -15 -6 0 -14 -1 -18 -2 -3 -2 -7 5 -9 15 -3 21 9 22 26 2z m-899 -7 c1
-7 0 -17 -1 -23 -2 -5 -2 -18 -2 -27 0 -10 -5 -18 -13 -18 -8 0 -13 8 -13 18
0 9 -3 25 -7 36 -7 17 -6 17 16 6 22 -12 23 -12 10 3 -9 11 -10 17 -2 17 6 0
12 -6 12 -12z m2998 -22 c22 -20 29 -42 10 -30 -7 4 -9 0 -5 -12 3 -11 -1 -27
-9 -37 -12 -17 -17 -17 -50 -6 -31 11 -37 11 -45 -1 -7 -11 -13 -12 -32 -2
-13 7 -35 13 -50 14 -39 3 -37 39 4 73 29 24 38 27 94 23 43 -3 69 -10 83 -22z
m-1084 -11 c25 -25 34 -78 15 -90 -12 -7 -51 13 -67 34 -6 9 -15 12 -20 7 -4
-5 -2 -11 5 -13 14 -6 16 -29 2 -38 -17 -10 -70 33 -63 52 4 11 2 14 -5 9 -7
-4 -10 -2 -6 7 5 15 81 57 102 57 7 0 24 -11 37 -25z m-990 -5 c-3 -5 -12 -10
-18 -10 -7 0 -6 4 3 10 19 12 23 12 15 0z m1572 -6 c-3 -3 -12 -4 -19 -1 -8 3
-5 6 6 6 11 1 17 -2 13 -5z m-79 -16 c-3 -7 -13 -15 -24 -17 -16 -3 -17 -1 -5
13 16 19 34 21 29 4z m37 -15 c-9 -8 -18 -13 -21 -10 -8 8 19 36 29 30 4 -2 0
-11 -8 -20z m-2425 2 c0 -8 -2 -15 -4 -15 -2 0 -6 7 -10 15 -3 8 -1 15 4 15 6
0 10 -7 10 -15z m135 5 c3 -5 -1 -10 -9 -10 -9 0 -16 5 -16 10 0 6 4 10 9 10
6 0 13 -4 16 -10z m2547 -27 c-3 -16 -7 -22 -10 -15 -4 13 4 42 11 42 2 0 2
-12 -1 -27z m-362 7 c-8 -5 -19 -10 -25 -10 -5 0 -3 5 5 10 8 5 20 10 25 10 6
0 3 -5 -5 -10z m-2254 -55 c-5 -27 -12 -45 -21 -45 -10 0 -11 8 -5 33 19 78
37 87 26 12z m121 35 c4 -13 3 -13 -6 0 -9 13 -11 13 -11 -2 0 -18 -18 -34
-27 -25 -2 3 -2 15 2 27 7 24 36 24 42 0z m1573 -8 c0 -13 -12 -22 -22 -16
-10 6 -1 24 13 24 5 0 9 -4 9 -8z m-1530 -41 c0 -27 -14 -41 -42 -41 -13 0 0
52 15 62 21 13 27 9 27 -21z m2434 -5 c-3 -15 -8 -25 -11 -23 -2 3 -1 17 3 31
3 15 8 25 11 23 2 -3 1 -17 -3 -31z m-2789 -3 c19 -13 18 -14 -10 -7 -37 8
-45 13 -45 24 0 11 27 2 55 -17z m216 -20 c-9 -16 -10 -16 -11 -1 0 9 3 25 7
35 7 16 8 17 11 1 2 -10 -1 -25 -7 -35z m40 0 c-12 -20 -14 -14 -5 12 4 9 9
14 11 11 3 -2 0 -13 -6 -23z m2860 -20 c-10 -17 -10 -16 -11 3 0 23 13 41 18
25 2 -6 -1 -18 -7 -28z m-3121 17 c18 -12 2 -12 -25 0 -13 6 -15 9 -5 9 8 0
22 -4 30 -9z m3080 -26 c0 -8 -7 -14 -15 -14 -17 0 -18 2 -9 24 7 18 24 12 24
-10z m-2680 1 c0 -8 -7 -15 -15 -15 -8 0 -15 7 -15 15 0 8 7 15 15 15 8 0 15
-7 15 -15z m58 -58 c2 -28 -1 -37 -12 -37 -9 0 -17 9 -17 20 -1 11 -2 26 -3
33 -3 18 4 29 17 24 7 -2 13 -20 15 -40z m-435 12 c58 -15 37 -23 -25 -9 -64
15 -100 34 -49 26 19 -4 52 -11 74 -17z m3137 -43 c-7 -7 -10 1 -9 25 0 32 1
33 10 10 6 -16 6 -28 -1 -35z m-3143 -1 c34 -8 70 -12 80 -9 17 5 17 5 0 -6
-14 -9 -34 -8 -88 5 -38 10 -69 19 -69 21 0 6 11 5 77 -11z m3117 -16 c-1 -13
-4 -37 -7 -54 -3 -16 -6 -38 -6 -47 -1 -22 -24 -23 -41 -3 -10 12 -8 23 9 60
11 25 21 52 21 61 0 8 6 14 13 11 6 -2 12 -15 11 -28z m-2596 -22 c4 -35 -6
-64 -17 -51 -5 5 -12 26 -15 47 -6 34 -5 38 11 35 11 -2 19 -14 21 -31z m2634
11 c-7 -7 -12 -8 -12 -2 0 14 12 26 19 19 2 -3 -1 -11 -7 -17z m-174 -31 c13
-15 10 -54 -5 -82 -11 -18 -12 -19 -18 -3 -4 10 -11 16 -15 13 -5 -3 -11 -1
-15 5 -3 5 -1 10 4 10 6 0 11 13 11 28 0 42 17 54 38 29z m-2858 -7 c0 -5 -2
-10 -4 -10 -3 0 -8 5 -11 10 -3 6 -1 10 4 10 6 0 11 -4 11 -10z m-40 -21 c25
-14 -29 -10 -75 6 l-40 14 50 -5 c28 -3 57 -10 65 -15z m77 15 c-3 -3 -12 -4
-19 -1 -8 3 -5 6 6 6 11 1 17 -2 13 -5z m461 -72 c2 -31 0 -42 -11 -42 -15 0
-27 29 -27 68 0 17 5 23 18 20 12 -2 18 -15 20 -46z m1387 29 c-8 -14 -25 -14
-25 0 0 5 5 7 10 4 6 -3 10 -1 10 6 0 7 3 10 6 6 3 -3 3 -10 -1 -16z m-1805
-27 c0 -2 -7 -4 -15 -4 -8 0 -15 4 -15 10 0 5 7 7 15 4 8 -4 15 -8 15 -10z
m-75 -20 l30 -14 -35 6 c-19 4 -53 13 -75 20 l-40 13 45 -5 c25 -4 59 -12 75
-20z m662 4 c-3 -8 -6 -5 -6 6 -1 11 2 17 5 13 3 -3 4 -12 1 -19z m2168 -5 c3
-10 -1 -13 -12 -11 -9 2 -18 8 -20 14 -5 16 25 13 32 -3z m-2215 -13 c0 -6
-25 -9 -57 -9 -52 1 -54 2 -23 9 53 11 80 11 80 0z m-540 -36 c0 -2 -7 -4 -15
-4 -8 0 -15 4 -15 10 0 5 7 7 15 4 8 -4 15 -8 15 -10z m529 2 c15 -18 11 -78
-5 -83 -14 -5 -47 64 -40 83 7 18 30 18 45 0z m-499 -6 c0 -5 -2 -10 -4 -10
-3 0 -8 5 -11 10 -3 6 -1 10 4 10 6 0 11 -4 11 -10z m30 0 c0 -5 -4 -10 -10
-10 -5 0 -10 5 -10 10 0 6 5 10 10 10 6 0 10 -4 10 -10z m3047 -12 c-3 -8 -6
-5 -6 6 -1 11 2 17 5 13 3 -3 4 -12 1 -19z m-3153 -9 c15 -7 7 -8 -32 -5 -28
3 -60 10 -70 16 -13 9 -6 10 32 5 27 -4 58 -11 70 -16z m2456 -22 c0 -7 -9
-13 -20 -14 -16 -1 -17 1 -7 12 15 18 27 19 27 2z m663 6 c-18 -2 -48 -2 -65
0 -18 2 -4 4 32 4 36 0 50 -2 33 -4z m-403 -20 c-8 -2 -24 -9 -36 -15 -12 -5
-32 -8 -45 -5 -20 3 -18 5 8 6 17 0 35 6 38 11 3 6 16 10 28 9 14 0 16 -2 7
-6z m-2635 -13 c3 -5 -3 -10 -14 -10 -12 0 -21 5 -21 10 0 6 6 10 14 10 8 0
18 -4 21 -10z m65 -5 c0 -8 -9 -15 -19 -15 -29 0 -35 18 -9 23 13 2 24 5 26 6
1 0 2 -6 2 -14z m2443 -2 c-13 -2 -33 -2 -45 0 -13 2 -3 4 22 4 25 0 35 -2 23
-4z m-2388 -23 c3 -5 2 -10 -4 -10 -5 0 -13 5 -16 10 -3 6 -2 10 4 10 5 0 13
-4 16 -10z m-182 -15 c20 -4 40 -12 44 -18 4 -6 -3 -8 -18 -4 -13 3 -41 9 -62
12 -20 4 -40 12 -44 18 -4 6 3 8 18 4 13 -3 41 -9 62 -12z m707 -15 c14 -26 9
-72 -7 -77 -14 -5 -53 53 -53 80 0 25 46 23 60 -3z m-586 -49 c3 -4 3 -11 0
-14 -8 -8 -34 3 -34 14 0 11 27 12 34 0z m76 -6 c0 -18 -45 -21 -56 -3 -5 8 0
9 14 6 12 -4 25 -2 28 3 8 13 14 11 14 -6z m-87 -74 c6 -6 7 -11 3 -11 -22 0
-146 34 -146 40 0 11 129 -15 143 -29z m2803 -35 c-3 -33 -2 -78 3 -98 5 -21
5 -36 1 -33 -8 5 -24 -44 -17 -51 8 -8 67 23 60 30 -5 5 1 4 12 -2 11 -5 32
-15 48 -21 30 -12 35 -32 12 -51 -22 -18 -92 -6 -121 21 -13 12 -24 18 -24 13
0 -15 14 -30 35 -38 20 -8 20 -8 1 -15 -19 -7 -19 -8 2 -13 12 -4 20 -2 16 3
-3 5 -1 9 5 9 16 0 31 -35 24 -58 -4 -17 1 -24 21 -32 14 -5 26 -12 26 -15 0
-2 -11 0 -25 5 -16 6 -27 6 -31 -2 -4 -7 -28 -8 -67 -4 -64 6 -93 21 -79 40 9
11 23 56 17 56 -2 0 -12 -15 -24 -32 -11 -18 -21 -28 -21 -23 0 6 12 28 26 49
26 37 26 40 9 53 -18 12 -18 13 4 13 14 0 20 -4 15 -11 -4 -7 -1 -10 7 -7 8 3
13 11 12 17 -2 6 4 11 12 11 10 0 14 8 11 23 -2 16 -10 21 -25 20 -16 -2 -21
3 -21 22 0 13 5 27 10 30 6 3 10 32 10 65 0 42 4 59 15 64 8 3 15 12 15 20 0
10 6 13 15 9 13 -4 15 -18 11 -67z m-2033 23 c43 -19 61 -85 31 -110 -14 -11
-21 -8 -50 24 -19 21 -34 47 -34 61 0 21 5 26 27 35 1 1 13 -4 26 -10z m-683
-45 c0 -9 -7 -14 -17 -12 -25 5 -28 28 -4 28 12 0 21 -6 21 -16z m61 6 c5 0 9
-4 9 -10 0 -5 -11 -10 -25 -10 -16 0 -25 6 -25 16 0 11 5 14 16 10 9 -3 20 -6
25 -6z m1559 -62 c0 -13 -23 -5 -28 10 -2 7 2 10 12 6 9 -3 16 -11 16 -16z
m-85 -58 c3 -5 17 -10 30 -10 13 0 26 -4 29 -9 3 -5 16 -7 29 -5 12 2 15 1 7
-2 -8 -4 -18 -12 -23 -18 -5 -7 -12 -5 -21 7 -18 23 -29 22 -16 -3 6 -11 18
-20 28 -20 13 0 14 -2 3 -9 -10 -7 -11 -13 -1 -31 6 -12 9 -24 6 -27 -3 -4
-11 8 -17 25 -7 20 -15 29 -25 25 -9 -3 -14 2 -14 16 0 24 -22 28 -40 6 -7 -8
-17 -15 -22 -15 -5 0 -2 7 6 16 9 8 16 23 15 32 0 11 -2 12 -6 5 -2 -7 -11
-13 -19 -13 -12 0 -18 -11 -16 -31 1 -3 -6 -6 -13 -6 -12 0 -12 3 -2 16 11 14
10 14 -5 2 -10 -7 -15 -17 -12 -22 9 -15 84 -7 84 8 0 25 18 13 22 -16 3 -23
1 -27 -14 -23 -26 7 -22 -15 7 -34 14 -9 25 -20 25 -25 0 -5 -12 -2 -27 8 -19
13 -45 17 -92 16 -53 -1 -59 0 -31 7 28 6 30 8 10 9 -18 1 -21 4 -11 10 7 5
11 14 7 20 -11 17 11 47 43 61 16 6 32 18 35 26 6 16 32 19 41 4z m-1392 -29
c5 -1 6 -5 3 -9 -3 -5 -26 -9 -51 -10 -32 0 -45 4 -45 14 0 12 22 14 93 5z
m1514 -17 c-3 -3 -12 -4 -19 -1 -8 3 -5 6 6 6 11 1 17 -2 13 -5z m-311 -123
c-17 -18 -16 -19 34 -30 28 -6 63 -11 78 -11 15 0 34 -5 42 -10 11 -7 3 -10
-30 -12 -68 -2 -74 -3 -87 -11 -7 -4 -18 2 -28 15 -8 13 -16 21 -18 18 -1 -2
-13 3 -26 12 l-23 16 28 16 c39 21 51 20 30 -3z m901 13 c-3 -3 -12 -4 -19 -1
-8 3 -5 6 6 6 11 1 17 -2 13 -5z m-1477 -44 c0 -11 -4 -20 -9 -20 -14 0 -23
18 -16 30 10 17 25 11 25 -10z m1817 -12 c-3 -8 -6 -5 -6 6 -1 11 2 17 5 13 3
-3 4 -12 1 -19z m-2393 -16 c2 -4 1 -14 -3 -21 -7 -10 -13 -11 -30 -2 -12 7
-19 16 -16 22 7 11 42 12 49 1z m62 -3 c10 -17 -13 -36 -27 -22 -12 12 -4 33
11 33 5 0 12 -5 16 -11z m2444 -18 c5 -11 19 -21 30 -23 12 -2 17 -7 12 -15
-6 -10 -14 -9 -36 2 -32 17 -66 20 -66 6 0 -5 -8 -11 -17 -14 -10 -2 -26 -8
-37 -12 -39 -16 -10 18 39 46 60 34 62 34 75 10z m-1829 -41 c21 -12 26 -39 7
-41 -44 -4 -78 12 -78 37 0 17 43 19 71 4z m1904 0 c3 -5 -1 -10 -10 -10 -9 0
-13 5 -10 10 3 6 8 10 10 10 2 0 7 -4 10 -10z m-2435 -225 c0 -8 -9 -15 -20
-15 -11 0 -20 7 -20 15 0 8 9 15 20 15 11 0 20 -7 20 -15z m74 6 c3 -5 -1 -14
-8 -20 -16 -13 -32 2 -21 19 8 12 22 13 29 1z"/>
<path d="M3539 1746 l-36 -21 20 -27 c17 -22 18 -30 7 -43 -11 -13 -8 -15 22
-15 27 0 43 9 82 50 l49 50 -42 0 c-22 0 -41 4 -41 9 0 18 -26 17 -61 -3z m71
-56 c-8 -5 -19 -10 -25 -10 -5 0 -3 5 5 10 8 5 20 10 25 10 6 0 3 -5 -5 -10z"/>
<path d="M3457 1683 c7 -20 44 -55 51 -49 2 3 -2 17 -10 33 -15 32 -53 47 -41
16z"/>
<path d="M3688 1684 c-30 -15 -39 -40 -12 -30 9 3 20 6 24 6 5 0 14 9 20 20
13 24 5 25 -32 4z"/>
<path d="M1065 1690 l-20 -9 20 0 c11 0 29 4 40 9 l20 9 -20 0 c-11 0 -29 -4
-40 -9z"/>
<path d="M4290 660 c-11 -7 -6 -10 20 -11 32 -1 33 -2 10 -9 -26 -8 -24 -10
27 -16 36 -4 51 10 33 31 -14 17 -67 20 -90 5z"/>
<path d="M4215 620 c-3 -6 1 -7 9 -4 18 7 21 14 7 14 -6 0 -13 -4 -16 -10z"/>
<path d="M4200 591 c0 -6 4 -13 10 -16 6 -3 7 1 4 9 -7 18 -14 21 -14 7z"/>
<path d="M4188 538 c-10 -10 -14 -18 -9 -18 10 0 36 29 30 34 -2 1 -12 -6 -21
-16z"/>
<path d="M4238 543 c7 -3 16 -2 19 1 4 3 -2 6 -13 5 -11 0 -14 -3 -6 -6z"/>
<path d="M4220 510 c14 -4 36 -8 50 -8 23 -1 23 0 5 8 -11 5 -33 8 -50 8 -29
0 -29 0 -5 -8z"/>
<path d="M2974 622 c4 -7 13 -12 21 -12 7 0 16 -6 18 -12 3 -8 6 -6 6 5 1 9
-3 17 -8 17 -5 0 -17 3 -27 7 -12 4 -15 3 -10 -5z"/>
<path d="M1680 2967 c0 -2 7 -18 15 -33 13 -25 15 -26 15 -8 0 12 -7 27 -15
34 -8 7 -15 10 -15 7z"/>
<path d="M1690 2889 c0 -5 5 -7 10 -4 6 3 10 8 10 11 0 2 -4 4 -10 4 -5 0 -10
-5 -10 -11z"/>
</g>
</svg>
